<svg width="351" height="347" viewBox="0 0 351 347" fill="none" xmlns="http://www.w3.org/2000/svg">
<g style="mix-blend-mode:multiply" opacity="0.05">
<path d="M246.17 160.843L49.7526 274.367H49.6251L30.4936 278.411C29.3227 278.206 28.1186 278.475 27.1447 279.156C26.1707 279.838 25.5061 280.879 25.2961 282.05C25.1874 282.633 25.195 283.232 25.3186 283.812C25.4422 284.392 25.6793 284.941 26.0163 285.429C26.3533 285.917 26.7834 286.333 27.2819 286.653C27.7804 286.974 28.3373 287.192 28.9205 287.296L50.9005 282.635L136.62 332.178L124.164 334.817C123.585 334.712 122.991 334.724 122.417 334.85C121.843 334.976 121.299 335.215 120.817 335.552C120.335 335.889 119.925 336.318 119.609 336.815C119.293 337.311 119.078 337.865 118.977 338.445C118.873 339.025 118.884 339.62 119.01 340.195C119.136 340.771 119.374 341.316 119.711 341.799C120.047 342.283 120.476 342.695 120.972 343.012C121.468 343.329 122.022 343.546 122.601 343.648L147.387 338.37L154.445 342.446V342.52L199.712 315.461C199.586 316.574 199.551 317.695 199.606 318.813C200.562 335.785 222.691 348.341 249.05 346.862C275.409 345.383 295.997 330.433 295.051 313.461C294.169 297.851 275.367 285.976 251.845 285.327L350.958 228.932V221.484L246.17 160.843Z" fill="#828BA4"/>
</g>
<g opacity="0.8">
<path opacity="0.8" d="M88.409 55.5864L14.0192 99.5427L13.1157 99.1064V44.7011L88.409 1.19177L89.2911 1.63868L88.409 55.5864Z" fill="#454C61"/>
<path opacity="0.8" d="M89.3018 56.0333L14.0192 99.5533L14.0085 45.148L89.3018 1.63867V56.0333Z" fill="#30384F"/>
<path opacity="0.8" d="M21.0873 51.1068L18.9828 52.3091V50.596L21.0766 49.3936L21.0873 51.1068Z" fill="white"/>
<path opacity="0.8" d="M51.7083 33.4008L23.4149 49.7554V48.0423L51.7083 31.6877V33.4008Z" fill="#F5D533"/>
<path opacity="0.8" d="M21.0873 55.1289L18.9828 56.3419V54.6182L21.0873 53.4158V55.1289Z" fill="white"/>
<path opacity="0.8" d="M36.4881 46.2227L23.4149 53.7775V52.0644L36.4881 44.5096V46.2227Z" fill="#F5D533"/>
<path opacity="0.8" d="M21.0873 59.151L18.9828 60.364V58.6403L21.0873 57.4379V59.151Z" fill="white"/>
<path opacity="0.8" d="M43.2479 46.3398L23.4149 57.7997V56.0866L43.2479 44.6266V46.3398Z" fill="#F5D533"/>
<path opacity="0.8" d="M21.0873 63.1732L18.9828 64.3862V62.6624L21.0873 61.46V63.1732Z" fill="white"/>
<path opacity="0.8" d="M47.0849 48.138L23.4149 61.8218V60.1087L47.0849 46.4249V48.138Z" fill="#F5D533"/>
<path opacity="0.8" d="M21.0873 69.0255L18.9828 70.2279V68.5148L21.0873 67.3124V69.0255Z" fill="white"/>
<path opacity="0.8" d="M38.4013 59.0127L23.4149 67.6741V65.961L38.4013 57.2996V59.0127Z" fill="#FF6469"/>
<path opacity="0.8" d="M21.0873 73.0476L18.9828 74.25V72.5369L21.0873 71.3239V73.0476Z" fill="white"/>
<path opacity="0.8" d="M50.9218 55.7993L23.4149 71.6963V69.9831L50.9218 54.0861V55.7993Z" fill="#FF6469"/>
<path opacity="0.8" d="M21.0873 77.0698L18.9828 78.2722V76.559L21.0873 75.346V77.0698Z" fill="white"/>
<path opacity="0.8" d="M34.2561 69.4511L23.4149 75.7184V74.0053L34.2561 67.738V69.4511Z" fill="#FF6469"/>
<path opacity="0.8" d="M21.0873 81.0919L18.9828 82.2943V80.5812L21.0873 79.3788V81.0919Z" fill="white"/>
<path opacity="0.8" d="M42.8122 68.536L23.4149 79.7406V78.0274L42.8122 66.8123V68.536Z" fill="#FF6469"/>
<path opacity="0.8" d="M65.6743 24.9203L67.2686 24.0052V22.6964L65.6743 23.6221V24.9203Z" fill="white"/>
<path opacity="0.8" d="M80.1611 15.248L69.0542 21.6643V22.973L80.1611 16.5568V15.248Z" fill="white"/>
<path opacity="0.8" d="M65.6743 27.9954L67.2686 27.0697V25.7609L65.6743 26.6866V27.9954Z" fill="white"/>
<path opacity="0.8" d="M74.1772 21.7706L69.0542 24.7287V26.0375L74.1772 23.0794V21.7706Z" fill="white"/>
<path opacity="0.8" d="M65.6743 31.0599L67.2686 30.1342V28.8254L65.6743 29.7511V31.0599Z" fill="white"/>
<path opacity="0.8" d="M76.8344 23.3029L69.0542 27.8039V29.1127L76.8344 24.6117V23.3029Z" fill="white"/>
<path opacity="0.8" d="M65.6743 34.1244L67.2686 33.2093V31.9005L65.6743 32.8156V34.1244Z" fill="white"/>
<path opacity="0.8" d="M78.3436 25.4949L69.0542 30.8684V32.1772L78.3436 26.8037V25.4949Z" fill="white"/>
<path opacity="0.8" d="M65.6743 38.5934L67.2686 37.6677V36.3589L65.6743 37.2846V38.5934Z" fill="white"/>
<path opacity="0.8" d="M76.2923 31.145L69.0542 35.3268V36.6356L76.2923 32.4538V31.145Z" fill="white"/>
<path opacity="0.8" d="M65.6743 41.6579L67.2686 40.7322V39.4234L65.6743 40.3491V41.6579Z" fill="white"/>
<path opacity="0.8" d="M69.0542 38.4019V39.7107L82.34 32.0282V30.7194L69.0542 38.4019Z" fill="white"/>
<path opacity="0.8" d="M65.6743 44.7224L67.2686 43.8073V42.4985L65.6743 43.4136V44.7224Z" fill="white"/>
<path opacity="0.8" d="M74.2941 38.4338L69.0542 41.4664V42.7752L74.2941 39.7426V38.4338Z" fill="white"/>
<path opacity="0.8" d="M65.6743 47.7975L67.2686 46.8718V45.563L65.6743 46.4887V47.7975Z" fill="white"/>
<path opacity="0.8" d="M69.0542 45.8397L78.418 40.4236V39.1148L69.0542 44.5309V45.8397Z" fill="white"/>
</g>
<g opacity="0.8">
<path opacity="0.8" d="M128.925 54.3947L54.5355 98.3615L53.6427 97.9146L53.6321 43.52L128.925 0L129.807 0.446904L128.925 54.3947Z" fill="#75C1F8"/>
<path opacity="0.8" d="M129.871 54.916L54.578 98.436L54.5674 44.0413L129.861 0.521362L129.871 54.916Z" fill="#B8DFFB"/>
<path opacity="0.8" d="M115.948 48.8509L68.491 76.2823V50.862L115.948 23.4305V48.8509Z" fill="#3FA9F5"/>
<path opacity="0.8" d="M112.111 31.7302L72.3279 54.7245V53.6285L112.111 30.6342V31.7302Z" fill="white"/>
<path opacity="0.8" d="M112.111 35.5714L72.3279 58.5657V57.4698L112.111 34.4755V35.5714Z" fill="white"/>
<path opacity="0.8" d="M112.111 39.4127L72.3279 62.407V61.311L112.111 38.3167V39.4127Z" fill="white"/>
<path opacity="0.8" d="M129.861 5.76717L54.5674 49.2765V44.0413L129.861 0.521362V5.76717Z" fill="#3FA9F5"/>
</g>
<path d="M211.265 263.259L211.893 271.846C212.144 273.419 211.982 275.032 211.423 276.524C210.864 278.016 209.927 279.338 208.704 280.358C204.452 283.955 198.075 282.593 193.441 280.358C189.753 278.592 178.699 273.591 174.044 266.089C172.896 264.238 170.218 260.056 175.107 257.438C178.295 255.757 184.885 258.353 189.583 259.428C192.463 260.088 197.129 260.811 197.129 260.811C197.129 260.811 201.306 257.992 205.537 259.747C209.767 261.503 211.563 259.747 211.265 263.259Z" fill="#30384F"/>
<path d="M193.441 254.501C193.441 254.501 192.378 263.259 200.637 265.142C208.895 267.025 214.667 264.631 215.634 259.981C216.24 257.087 219.035 229.996 220.725 214.833L198.979 197.915L193.441 254.501Z" fill="#4F5669"/>
<path d="M278.662 220.313C277.599 212.695 274.793 205.416 273.921 197.776L254.513 203.661C254.513 203.661 224.434 190.466 215.974 189.307C211.117 188.636 206.886 188.402 202.412 192.499C200.817 193.862 199.567 195.585 198.765 197.525C197.964 199.465 197.632 201.568 197.799 203.661L198.181 207.236L230.96 224.804C230.96 224.74 243.3 231.582 249.528 233.391C259.041 236.157 271.732 233.901 276.642 231.135C277.312 230.752 278.204 230.273 279.235 229.73C279.246 226.582 279.055 223.437 278.662 220.313Z" fill="#4F5669"/>
<path d="M184.386 281.337L185.002 289.913C185.254 291.487 185.093 293.1 184.534 294.592C183.975 296.085 183.037 297.406 181.813 298.426C177.562 302.022 171.185 300.66 166.551 298.426C162.863 296.659 151.809 291.658 147.153 284.167C146.006 282.316 143.327 278.124 148.216 275.517C151.405 273.825 157.995 276.432 162.693 277.506C165.562 278.155 170.239 278.879 170.239 278.879C170.239 278.879 174.416 276.07 178.646 277.815C182.876 279.56 184.683 277.826 184.386 281.337Z" fill="#3A4258"/>
<path d="M282.158 328.794C280.947 328.092 279.884 328.166 279.235 328.847L279.172 328.762L273.209 332.114L277.907 340.924L284.614 337.636C285.283 337.189 285.676 336.349 285.676 334.657C285.619 333.465 285.268 332.305 284.654 331.282C284.04 330.259 283.183 329.404 282.158 328.794Z" fill="#30384F"/>
<path d="M278.121 340.947C279.519 340.139 279.518 337.516 278.118 335.088C276.718 332.66 274.449 331.348 273.051 332.156C271.653 332.964 271.655 335.587 273.055 338.014C274.455 340.442 276.723 341.755 278.121 340.947Z" fill="#30384F"/>
<path d="M209.884 330.614C211.095 329.922 212.158 329.996 212.807 330.677L212.87 330.582L218.833 333.944L214.135 342.754L207.428 339.435C206.759 338.988 206.366 338.136 206.366 336.445C206.43 335.258 206.784 334.106 207.398 333.089C208.011 332.073 208.865 331.222 209.884 330.614Z" fill="#30384F"/>
<path d="M212.86 340.414C212.86 342.712 214.465 343.606 216.452 342.488C217.495 341.802 218.362 340.878 218.981 339.793C219.599 338.707 219.953 337.491 220.013 336.242C220.013 333.955 218.408 333.05 216.431 334.167C215.386 334.853 214.517 335.776 213.896 336.861C213.276 337.947 212.92 339.164 212.86 340.414Z" fill="#30384F"/>
<path d="M276.706 299C277.122 298.668 277.641 298.493 278.174 298.504C278.706 298.516 279.217 298.714 279.618 299.064L279.692 298.968L285.655 302.331L280.957 311.141L274.219 307.811C273.549 307.364 273.156 306.523 273.156 304.821C273.225 303.633 273.585 302.481 274.204 301.466C274.823 300.451 275.682 299.604 276.706 299Z" fill="#30384F"/>
<path d="M279.682 308.758C279.682 311.056 281.287 311.95 283.264 310.833C284.31 310.154 285.181 309.238 285.805 308.157C286.43 307.077 286.79 305.865 286.856 304.619C286.856 302.331 285.251 301.426 283.264 302.544C282.221 303.225 281.354 304.143 280.732 305.222C280.109 306.302 279.75 307.513 279.682 308.758Z" fill="#30384F"/>
<path d="M220.704 299C220.287 298.668 219.768 298.493 219.236 298.504C218.704 298.516 218.193 298.714 217.791 299.064L217.728 298.968L211.754 302.331L216.452 311.141L223.169 307.853C223.839 307.406 224.232 306.566 224.232 304.863C224.174 303.67 223.821 302.51 223.205 301.487C222.59 300.464 221.73 299.609 220.704 299Z" fill="#30384F"/>
<path d="M217.728 308.758C217.728 311.056 216.123 311.95 214.146 310.833C213.1 310.154 212.229 309.238 211.604 308.157C210.98 307.077 210.62 305.865 210.553 304.619C210.553 302.331 212.158 301.426 214.146 302.544C215.188 303.225 216.056 304.143 216.678 305.222C217.3 306.302 217.66 307.513 217.728 308.758Z" fill="#30384F"/>
<path d="M248.444 310.173L217.674 295.191C217.076 294.904 216.416 294.774 215.754 294.813C215.092 294.852 214.451 295.059 213.891 295.414C213.306 295.674 212.787 296.062 212.373 296.551C211.959 297.039 211.66 297.614 211.499 298.234V300.416L243.247 316.376L248.444 310.173Z" fill="#7F8492"/>
<path d="M244.565 311.365L277.131 295.191C277.698 294.899 278.332 294.766 278.969 294.805C279.605 294.844 280.218 295.055 280.745 295.414C281.326 295.654 281.835 296.039 282.225 296.533C282.614 297.027 282.869 297.613 282.966 298.234V300.416L249.592 317.536L244.565 311.365Z" fill="#7F8492"/>
<path d="M245.521 300.82H246.903C247.727 300.82 248.542 300.982 249.303 301.298C250.064 301.613 250.755 302.076 251.337 302.659C251.92 303.242 252.382 303.934 252.697 304.695C253.012 305.457 253.174 306.273 253.174 307.098V319.739H239.25V307.098C239.25 305.433 239.911 303.836 241.087 302.659C242.263 301.481 243.858 300.82 245.521 300.82Z" fill="#454C61"/>
<path d="M243.204 285.051V302.81C243.2 303.284 243.291 303.755 243.471 304.194C243.652 304.634 243.918 305.032 244.255 305.366C244.592 305.701 244.992 305.964 245.433 306.141C245.873 306.317 246.344 306.404 246.818 306.396C250.4 306.396 249.645 303.203 249.645 303.203V285.051H243.204Z" fill="#30384F"/>
<path d="M239.442 268.792V285.519C240.255 286.45 241.256 287.199 242.379 287.714C243.502 288.23 244.722 288.501 245.957 288.509C248.561 288.435 251.037 287.365 252.876 285.519V266.366L239.442 268.792Z" fill="#454C61"/>
<path d="M165.605 273.878C165.605 273.878 164.542 282.39 172.588 284.178C180.634 285.966 186.224 283.678 187.17 279.156C187.755 276.357 190.465 250.032 192.113 235.295L171.036 218.909L165.605 273.878Z" fill="#6E7484"/>
<path d="M220.704 228.475C229.207 223.005 235.074 219.962 242.184 218.898C252.419 217.408 265.95 221.984 273.507 225.176C278.375 227.23 292.798 233.337 289.45 241.296C287.037 246.968 275.229 251.054 266.577 255.236C257.925 259.417 246.691 266.781 237.146 267.377C227.602 267.972 217.154 262.897 208.513 257.225C199.872 251.554 200.754 243.393 206.387 238.317C210.968 234.231 213.253 233.252 220.704 228.475Z" fill="#00A4EE"/>
<path d="M279.82 205.895L227.634 221.739C227.634 221.739 197.544 208.534 189.094 207.374C184.226 206.715 179.996 206.48 175.521 210.566C173.926 211.932 172.677 213.656 171.875 215.598C171.073 217.54 170.742 219.644 170.908 221.739L171.291 225.314L204.07 242.882C204.07 242.818 216.42 249.66 222.638 251.469C232.151 254.235 244.841 251.98 249.752 249.213C254.662 246.447 270.616 238.775 276.759 232.018C282.902 225.261 279.82 205.895 279.82 205.895Z" fill="#6E7484"/>
<path d="M201.827 246.095V254.459C202.493 257.302 203.766 259.967 205.558 262.27C207.351 264.573 209.621 266.461 212.211 267.802C221.161 272.58 235.105 276.559 241.865 273.974C248.625 271.388 274.091 258.247 279.661 255.257C285.23 252.267 288.015 250.681 289.014 248.085C290.013 245.489 289.216 237.54 289.216 237.54C289.216 237.54 274.697 249.085 257.989 254.661C241.281 260.237 234.882 263.418 226.73 261.428C218.578 259.439 201.827 246.095 201.827 246.095Z" fill="#30384F"/>
<path d="M238.305 272.399C235.828 268.43 237.465 264.057 240.133 260.694C234.967 262.152 231.077 262.567 226.73 261.503C218.578 259.513 201.827 246.17 201.827 246.17V254.533C202.493 257.376 203.766 260.041 205.558 262.344C207.351 264.648 209.621 266.535 212.211 267.877C220.512 272.303 233.118 276.049 240.292 274.506C239.572 273.86 238.907 273.155 238.305 272.399Z" fill="#454C61"/>
<path d="M209.969 332.273C209.969 332.273 207.131 327.698 211.51 326.102C215.889 324.506 240.207 312.365 240.207 312.365C240.207 312.365 245.458 313.163 245.458 315.153C245.506 316.627 245.705 318.093 246.053 319.526C246.053 319.526 219.598 331.88 217.015 333.263C214.433 334.646 212.254 333.667 209.969 332.273Z" fill="#7F8492"/>
<path d="M284.263 332.273C284.263 332.273 286.506 327.698 282.137 326.102C277.769 324.506 253.621 311.769 253.621 311.769C253.621 311.769 248.572 312.567 248.572 314.557V318.93C248.572 318.93 274.825 331.88 277.407 333.263C279.99 334.646 281.978 333.667 284.263 332.273Z" fill="#7F8492"/>
<path d="M123.441 343.34C122.852 343.34 122.27 343.223 121.726 342.998C121.183 342.772 120.689 342.441 120.273 342.024C119.858 341.607 119.528 341.112 119.304 340.567C119.08 340.022 118.965 339.438 118.966 338.849V237.487H127.926V338.849C127.926 340.04 127.454 341.182 126.613 342.024C125.771 342.867 124.631 343.34 123.441 343.34Z" fill="#EAECF0"/>
<path d="M123.197 237.487V343.308C123.278 343.313 123.36 343.313 123.441 343.308C124.631 343.308 125.771 342.835 126.613 341.993C127.454 341.15 127.926 340.008 127.926 338.817V237.487H123.197Z" fill="#C8CCD7"/>
<path d="M29.6326 286.859C29.0441 286.861 28.4611 286.746 27.917 286.521C27.3729 286.297 26.8783 285.967 26.4617 285.551C26.0451 285.135 25.7145 284.641 25.489 284.097C25.2634 283.552 25.1473 282.969 25.1473 282.38V181.018H34.1073V282.38C34.1087 282.968 33.9939 283.552 33.7695 284.096C33.5451 284.64 33.2156 285.134 32.7998 285.55C32.384 285.967 31.8902 286.297 31.3467 286.521C30.8031 286.746 30.2206 286.861 29.6326 286.859Z" fill="#EAECF0"/>
<path d="M29.3776 181.018V286.838H29.6327C30.2207 286.84 30.8032 286.725 31.3467 286.5C31.8902 286.275 32.384 285.946 32.7998 285.529C33.2156 285.113 33.5452 284.619 33.7695 284.074C33.9939 283.53 34.1087 282.947 34.1073 282.358V181.018H29.3776Z" fill="#C8CCD7"/>
<path d="M297.187 129.815H306.105V231.177C306.105 232.368 305.632 233.51 304.791 234.352C303.95 235.195 302.809 235.668 301.619 235.668C300.43 235.668 299.289 235.195 298.448 234.352C297.607 233.51 297.134 232.368 297.134 231.177V129.815H297.187Z" fill="#EAECF0"/>
<path d="M301.417 129.815V235.636H301.673C302.261 235.637 302.843 235.522 303.387 235.298C303.93 235.073 304.424 234.743 304.84 234.327C305.256 233.91 305.585 233.416 305.809 232.872C306.034 232.328 306.149 231.745 306.147 231.156V129.815H301.417Z" fill="#C8CCD7"/>
<path d="M207.854 179.209C206.666 179.206 205.528 178.732 204.689 177.89C203.85 177.048 203.379 175.907 203.379 174.718V73.3562H212.339V174.718C212.339 175.909 211.866 177.051 211.025 177.894C210.184 178.736 209.043 179.209 207.854 179.209Z" fill="#DFE2E8"/>
<path d="M207.609 73.3562V179.187H207.854C209.043 179.187 210.184 178.714 211.025 177.872C211.866 177.03 212.339 175.888 212.339 174.697V73.3562H207.609Z" fill="#D0D3DC"/>
<path d="M314.937 126.91L118.424 240.498L13.594 179.9L210.107 66.3228L314.937 126.91Z" fill="#FCFCFD"/>
<path d="M118.392 247.957V240.466L13.5621 179.879V187.37L118.392 247.957Z" fill="#C0C4D1"/>
<path d="M314.895 134.433V126.942L118.382 240.52V248.021L314.895 134.433Z" fill="#A7ADBF"/>
<g style="mix-blend-mode:multiply" opacity="0.3">
<path d="M212.913 132.369L146.271 171.558L118.222 156.863L118.881 162.748L146.611 174.995L213.157 136.391L212.913 132.369Z" fill="#616C8C"/>
</g>
<path d="M118.222 155.799L118.881 161.684L146.611 173.931L146.271 170.494L118.222 155.799Z" fill="#B0B5C5"/>
<path d="M187 116.802L212.945 131.422L146.271 170.494L118.222 155.799L187 116.802Z" fill="white"/>
<path d="M212.913 131.305L146.271 170.494L146.611 173.931L213.157 135.327L212.913 131.305Z" fill="#9098AE"/>
<path fill-rule="evenodd" clip-rule="evenodd" d="M127.767 156.342L125.227 154.884L127.884 153.341L130.413 154.81L127.767 156.342Z" fill="#616C8C"/>
<path fill-rule="evenodd" clip-rule="evenodd" d="M132.943 153.341L130.403 151.884L133.049 150.341L135.589 151.809L132.943 153.341Z" fill="#616C8C"/>
<path fill-rule="evenodd" clip-rule="evenodd" d="M136.248 151.426L133.719 149.958L136.365 148.425L138.906 149.883L136.248 151.426Z" fill="#616C8C"/>
<path fill-rule="evenodd" clip-rule="evenodd" d="M139.565 149.5L137.035 148.042L139.681 146.5L142.222 147.957L139.565 149.5Z" fill="#616C8C"/>
<path fill-rule="evenodd" clip-rule="evenodd" d="M144.741 146.5L142.2 145.042L144.847 143.499L147.387 144.957L144.741 146.5Z" fill="#616C8C"/>
<path fill-rule="evenodd" clip-rule="evenodd" d="M148.057 144.574L145.517 143.116L148.163 141.584L150.703 143.041L148.057 144.574Z" fill="#616C8C"/>
<path fill-rule="evenodd" clip-rule="evenodd" d="M151.362 142.658L148.833 141.19L151.479 139.658L154.02 141.115L151.362 142.658Z" fill="#616C8C"/>
<path fill-rule="evenodd" clip-rule="evenodd" d="M156.539 139.658L153.998 138.2L156.655 136.657L159.185 138.115L156.539 139.658Z" fill="#616C8C"/>
<path fill-rule="evenodd" clip-rule="evenodd" d="M159.855 137.732L157.314 136.274L159.972 134.731L162.501 136.199L159.855 137.732Z" fill="#616C8C"/>
<path fill-rule="evenodd" clip-rule="evenodd" d="M163.171 135.806L160.631 134.348L163.277 132.816L165.817 134.274L163.171 135.806Z" fill="#616C8C"/>
<path fill-rule="evenodd" clip-rule="evenodd" d="M168.474 132.731L165.934 131.273L168.581 129.741L171.121 131.198L168.474 132.731Z" fill="#616C8C"/>
<path fill-rule="evenodd" clip-rule="evenodd" d="M171.631 130.826L169.133 129.326L171.854 127.804L174.352 129.304L171.631 130.826Z" fill="#616C8C"/>
<path fill-rule="evenodd" clip-rule="evenodd" d="M175.096 128.889L172.567 127.432L175.213 125.889L177.753 127.357L175.096 128.889Z" fill="#616C8C"/>
<path fill-rule="evenodd" clip-rule="evenodd" d="M179.337 126.431L176.807 124.974L179.454 123.431L181.994 124.889L179.337 126.431Z" fill="#616C8C"/>
<path fill-rule="evenodd" clip-rule="evenodd" d="M182.653 124.505L180.123 123.048L182.77 121.505L185.31 122.963L182.653 124.505Z" fill="#616C8C"/>
<path fill-rule="evenodd" clip-rule="evenodd" d="M185.969 122.58L183.429 121.122L186.086 119.59L188.626 121.047L185.969 122.58Z" fill="#616C8C"/>
<path fill-rule="evenodd" clip-rule="evenodd" d="M190.667 125.282L188.127 123.824L190.784 122.282L193.314 123.75L190.667 125.282Z" fill="#616C8C"/>
<path fill-rule="evenodd" clip-rule="evenodd" d="M193.834 127.112L191.294 125.644L193.951 124.112L196.492 125.57L193.834 127.112Z" fill="#616C8C"/>
<path fill-rule="evenodd" clip-rule="evenodd" d="M187.351 127.208L184.811 125.75L187.468 124.208L189.997 125.665L187.351 127.208Z" fill="#616C8C"/>
<path fill-rule="evenodd" clip-rule="evenodd" d="M190.518 129.028L187.989 127.57L190.635 126.038L193.175 127.495L190.518 129.028Z" fill="#616C8C"/>
<path fill-rule="evenodd" clip-rule="evenodd" d="M184.035 129.134L181.495 127.666L184.152 126.133L186.692 127.591L184.035 129.134Z" fill="#616C8C"/>
<path fill-rule="evenodd" clip-rule="evenodd" d="M187.202 130.954L184.672 129.496L187.319 127.953L189.859 129.411L187.202 130.954Z" fill="#616C8C"/>
<path fill-rule="evenodd" clip-rule="evenodd" d="M203.219 132.507L200.679 131.049L203.336 129.507L205.877 130.964L203.219 132.507Z" fill="#616C8C"/>
<path fill-rule="evenodd" clip-rule="evenodd" d="M199.903 134.433L197.374 132.975L200.02 131.432L202.561 132.89L199.903 134.433Z" fill="#616C8C"/>
<path fill-rule="evenodd" clip-rule="evenodd" d="M196.587 136.348L194.058 134.891L196.704 133.358L199.244 134.816L196.587 136.348Z" fill="#616C8C"/>
<path fill-rule="evenodd" clip-rule="evenodd" d="M196.736 132.603L194.196 131.145L196.853 129.613L199.383 131.071L196.736 132.603Z" fill="#616C8C"/>
<path fill-rule="evenodd" clip-rule="evenodd" d="M175.415 134.125L172.885 132.667L175.532 131.124L178.072 132.592L175.415 134.125Z" fill="#616C8C"/>
<path fill-rule="evenodd" clip-rule="evenodd" d="M172.099 136.05L169.569 134.593L172.216 133.05L174.756 134.508L172.099 136.05Z" fill="#616C8C"/>
<path fill-rule="evenodd" clip-rule="evenodd" d="M168.793 137.976L166.253 136.508L168.9 134.976L171.44 136.434L168.793 137.976Z" fill="#616C8C"/>
<path fill-rule="evenodd" clip-rule="evenodd" d="M165.477 139.892L162.937 138.434L165.584 136.902L168.124 138.359L165.477 139.892Z" fill="#616C8C"/>
<path fill-rule="evenodd" clip-rule="evenodd" d="M162.161 141.818L159.621 140.36L162.278 138.817L164.808 140.275L162.161 141.818Z" fill="#616C8C"/>
<path fill-rule="evenodd" clip-rule="evenodd" d="M158.845 143.744L156.305 142.275L158.962 140.743L161.491 142.201L158.845 143.744Z" fill="#616C8C"/>
<path fill-rule="evenodd" clip-rule="evenodd" d="M155.529 145.659L152.989 144.201L155.646 142.669L158.175 144.127L155.529 145.659Z" fill="#616C8C"/>
<path fill-rule="evenodd" clip-rule="evenodd" d="M152.213 147.585L149.672 146.127L152.33 144.584L154.87 146.042L152.213 147.585Z" fill="#616C8C"/>
<path fill-rule="evenodd" clip-rule="evenodd" d="M148.897 149.511L146.367 148.042L149.013 146.51L151.554 147.968L148.897 149.511Z" fill="#616C8C"/>
<path fill-rule="evenodd" clip-rule="evenodd" d="M145.58 151.426L143.051 149.968L145.835 148.351L148.365 149.809L145.58 151.426Z" fill="#616C8C"/>
<path fill-rule="evenodd" clip-rule="evenodd" d="M142.275 153.352L139.735 151.894L142.519 150.277L145.06 151.735L142.275 153.352Z" fill="#616C8C"/>
<path fill-rule="evenodd" clip-rule="evenodd" d="M138.959 155.278L136.418 153.82L139.203 152.203L141.743 153.661L138.959 155.278Z" fill="#616C8C"/>
<path fill-rule="evenodd" clip-rule="evenodd" d="M135.77 157.119L133.241 155.661L135.887 154.118L138.427 155.587L135.77 157.119Z" fill="#616C8C"/>
<path fill-rule="evenodd" clip-rule="evenodd" d="M132.465 159.045L129.924 157.587L132.571 156.044L135.111 157.502L132.465 159.045Z" fill="#616C8C"/>
<path fill-rule="evenodd" clip-rule="evenodd" d="M140.532 158.023L138.002 156.566L140.649 155.023L143.189 156.48L140.532 158.023Z" fill="#616C8C"/>
<path fill-rule="evenodd" clip-rule="evenodd" d="M143.848 156.097L141.318 154.64L143.965 153.097L146.505 154.565L143.848 156.097Z" fill="#616C8C"/>
<path fill-rule="evenodd" clip-rule="evenodd" d="M147.164 154.171L144.624 152.714L147.281 151.181L149.821 152.639L147.164 154.171Z" fill="#616C8C"/>
<path fill-rule="evenodd" clip-rule="evenodd" d="M150.48 152.256L147.94 150.798L150.597 149.255L153.127 150.713L150.48 152.256Z" fill="#616C8C"/>
<path fill-rule="evenodd" clip-rule="evenodd" d="M153.796 150.33L151.256 148.872L153.913 147.33L156.443 148.798L153.796 150.33Z" fill="#616C8C"/>
<path fill-rule="evenodd" clip-rule="evenodd" d="M157.113 148.404L154.572 146.946L157.229 145.414L159.759 146.872L157.113 148.404Z" fill="#616C8C"/>
<path fill-rule="evenodd" clip-rule="evenodd" d="M160.429 146.489L157.888 145.031L160.535 143.488L163.075 144.946L160.429 146.489Z" fill="#616C8C"/>
<path fill-rule="evenodd" clip-rule="evenodd" d="M163.607 144.637L161.066 143.18L163.851 141.562L166.391 143.02L163.607 144.637Z" fill="#616C8C"/>
<path fill-rule="evenodd" clip-rule="evenodd" d="M166.923 142.722L164.382 141.254L167.167 139.647L169.707 141.105L166.923 142.722Z" fill="#616C8C"/>
<path fill-rule="evenodd" clip-rule="evenodd" d="M170.239 140.796L167.699 139.338L170.483 137.721L173.024 139.179L170.239 140.796Z" fill="#616C8C"/>
<path fill-rule="evenodd" clip-rule="evenodd" d="M173.544 138.87L171.015 137.412L173.661 135.88L176.202 137.338L173.544 138.87Z" fill="#616C8C"/>
<path fill-rule="evenodd" clip-rule="evenodd" d="M176.86 136.955L174.331 135.487L176.977 133.954L179.518 135.412L176.86 136.955Z" fill="#616C8C"/>
<path fill-rule="evenodd" clip-rule="evenodd" d="M177.785 140.083L175.117 138.551L177.764 137.008L180.432 138.54L177.785 140.083Z" fill="#616C8C"/>
<path fill-rule="evenodd" clip-rule="evenodd" d="M174.469 142.009L171.801 140.477L174.458 138.934L177.116 140.466L174.469 142.009Z" fill="#616C8C"/>
<path fill-rule="evenodd" clip-rule="evenodd" d="M171.153 143.925L168.485 142.392L171.142 140.86L173.799 142.392L171.153 143.925Z" fill="#616C8C"/>
<path fill-rule="evenodd" clip-rule="evenodd" d="M167.837 145.85L165.18 144.318L167.826 142.775L170.494 144.308L167.837 145.85Z" fill="#616C8C"/>
<path fill-rule="evenodd" clip-rule="evenodd" d="M164.521 147.776L161.864 146.244L164.51 144.701L167.178 146.234L164.521 147.776Z" fill="#616C8C"/>
<path fill-rule="evenodd" clip-rule="evenodd" d="M161.205 149.692L158.547 148.159L161.194 146.627L163.862 148.159L161.205 149.692Z" fill="#616C8C"/>
<path fill-rule="evenodd" clip-rule="evenodd" d="M157.899 151.618L155.231 150.085L157.878 148.543L160.546 150.075L157.899 151.618Z" fill="#616C8C"/>
<path fill-rule="evenodd" clip-rule="evenodd" d="M154.583 153.544L151.915 152.011L154.572 150.468L157.229 152.001L154.583 153.544Z" fill="#616C8C"/>
<path fill-rule="evenodd" clip-rule="evenodd" d="M151.267 155.459L148.599 153.927L151.384 152.32L154.051 153.852L151.267 155.459Z" fill="#616C8C"/>
<path fill-rule="evenodd" clip-rule="evenodd" d="M147.951 157.385L145.283 155.853L148.068 154.235L150.735 155.767L147.951 157.385Z" fill="#616C8C"/>
<path fill-rule="evenodd" clip-rule="evenodd" d="M144.634 159.311L141.967 157.779L144.751 156.161L147.419 157.693L144.634 159.311Z" fill="#616C8C"/>
<path fill-rule="evenodd" clip-rule="evenodd" d="M149.407 160.056L146.866 158.598L149.524 157.066L152.053 158.523L149.407 160.056Z" fill="#616C8C"/>
<path fill-rule="evenodd" clip-rule="evenodd" d="M152.723 158.14L150.183 156.672L152.829 155.14L155.369 156.597L152.723 158.14Z" fill="#616C8C"/>
<path fill-rule="evenodd" clip-rule="evenodd" d="M156.028 156.214L153.499 154.757L156.145 153.214L158.686 154.671L156.028 156.214Z" fill="#616C8C"/>
<path fill-rule="evenodd" clip-rule="evenodd" d="M159.344 154.288L156.815 152.831L159.461 151.298L162.002 152.756L159.344 154.288Z" fill="#616C8C"/>
<path fill-rule="evenodd" clip-rule="evenodd" d="M162.661 152.373L160.12 150.905L162.778 149.372L165.318 150.83L162.661 152.373Z" fill="#616C8C"/>
<path fill-rule="evenodd" clip-rule="evenodd" d="M165.977 150.447L163.437 148.989L166.094 147.447L168.623 148.904L165.977 150.447Z" fill="#616C8C"/>
<path fill-rule="evenodd" clip-rule="evenodd" d="M169.293 148.521L166.753 147.063L169.41 145.521L171.939 146.989L169.293 148.521Z" fill="#616C8C"/>
<path fill-rule="evenodd" clip-rule="evenodd" d="M172.609 146.606L170.069 145.138L172.715 143.605L175.256 145.063L172.609 146.606Z" fill="#616C8C"/>
<path fill-rule="evenodd" clip-rule="evenodd" d="M175.914 144.68L173.385 143.222L176.031 141.679L178.572 143.137L175.914 144.68Z" fill="#616C8C"/>
<path fill-rule="evenodd" clip-rule="evenodd" d="M179.231 142.754L176.701 141.296L179.348 139.753L181.888 141.222L179.231 142.754Z" fill="#616C8C"/>
<path fill-rule="evenodd" clip-rule="evenodd" d="M189.179 136.987L186.639 135.529L189.296 133.986L191.826 135.455L189.179 136.987Z" fill="#616C8C"/>
<path fill-rule="evenodd" clip-rule="evenodd" d="M190.625 139.817L188.084 138.349L192.463 135.816L195.004 137.274L190.625 139.817Z" fill="#616C8C"/>
<path fill-rule="evenodd" clip-rule="evenodd" d="M185.725 142.658L183.185 141.201L187.425 138.732L189.966 140.2L185.725 142.658Z" fill="#616C8C"/>
<path fill-rule="evenodd" clip-rule="evenodd" d="M180.814 145.499L178.274 144.042L182.515 141.584L185.055 143.041L180.814 145.499Z" fill="#616C8C"/>
<path fill-rule="evenodd" clip-rule="evenodd" d="M154.827 160.577L152.287 159.119L156.539 156.651L159.068 158.119L154.827 160.577Z" fill="#616C8C"/>
<path fill-rule="evenodd" clip-rule="evenodd" d="M149.927 163.418L147.387 161.96L151.628 159.502L154.168 160.96L149.927 163.418Z" fill="#616C8C"/>
<path fill-rule="evenodd" clip-rule="evenodd" d="M145.017 166.27L142.477 164.801L146.718 162.343L149.258 163.801L145.017 166.27Z" fill="#616C8C"/>
<path fill-rule="evenodd" clip-rule="evenodd" d="M182.547 140.828L180.017 139.37L185.842 135.987L188.382 137.455L182.547 140.828Z" fill="#616C8C"/>
<path fill-rule="evenodd" clip-rule="evenodd" d="M178.731 132.209L176.191 130.741L179.911 128.591L182.441 130.049L178.731 132.209Z" fill="#616C8C"/>
<path fill-rule="evenodd" clip-rule="evenodd" d="M135.632 160.864L133.092 159.407L137.333 156.949L139.873 158.406L135.632 160.864Z" fill="#616C8C"/>
<path fill-rule="evenodd" clip-rule="evenodd" d="M141.85 164.44L139.31 162.982L146.208 158.981L148.737 160.439L141.85 164.44Z" fill="#616C8C"/>
<path fill-rule="evenodd" clip-rule="evenodd" d="M138.799 162.694L136.142 161.162L141.446 158.076L144.103 159.609L138.799 162.694Z" fill="#616C8C"/>
<path fill-rule="evenodd" clip-rule="evenodd" d="M159.738 157.725L157.198 156.268L177.615 144.425L180.155 145.882L159.738 157.725Z" fill="#616C8C"/>
<path fill-rule="evenodd" clip-rule="evenodd" d="M180.974 138.083L178.434 136.625L180.24 135.561C180.41 135.465 180.379 135.359 180.347 135.242C180.315 135.125 180.219 135.242 180.219 135.242C180.219 135.242 180.283 135.146 180.219 135.103L177.604 133.561L183.046 130.432L188.648 133.624L180.974 138.083Z" fill="#616C8C"/>
<g style="mix-blend-mode:multiply" opacity="0.3">
<path d="M133.634 155.991C133.634 155.991 136.822 157.523 137.481 159.29C138.469 161.808 140.293 163.908 142.647 165.238C144.267 166.088 146.01 166.68 147.812 166.993C147.812 166.993 150.448 169.302 152.425 170.739C154.402 172.175 177.498 185.38 181.675 186.806C185.852 188.232 196.736 188.349 203.443 187.03C207.838 186.131 212.173 184.955 216.42 183.507C216.42 183.507 216.314 178.006 209.714 175.804C203.113 173.601 182.993 172.388 180.251 170.622C177.509 168.855 153.531 159.183 153.531 159.183C153.531 159.183 137.694 149.277 135.94 150.596C134.186 151.916 133.634 155.991 133.634 155.991Z" fill="#616C8C"/>
</g>
<g style="mix-blend-mode:multiply" opacity="0.3">
<path d="M180.028 127.368C180.967 128.323 182.145 129.006 183.44 129.347C185.852 130.124 187.064 130.23 187.393 131.55C187.723 132.869 180.793 132.433 180.793 132.433C180.999 132.888 181.304 133.292 181.684 133.615C182.064 133.939 182.511 134.175 182.993 134.305C184.651 134.742 185.523 135.731 186.841 136.721C188.641 137.787 190.691 138.356 192.782 138.37C193.649 138.307 194.521 138.419 195.344 138.7L195.716 140.69L223.786 153.895L229.398 149.713C229.398 149.713 213.636 136.614 207.737 135.401C201.838 134.188 191.794 129.017 191.241 128.794C190.688 128.57 183.195 124.069 182.653 124.537C182.111 125.006 180.028 127.368 180.028 127.368Z" fill="#616C8C"/>
</g>
<path d="M247.254 226.985C245.287 223.611 244.301 219.755 244.406 215.85C244.512 211.945 245.704 208.147 247.849 204.884C256.798 193.542 271.115 192.35 283.051 184.582C285.57 183.071 289.779 182.454 291.745 184.401C290.682 179.432 288.142 178.496 286.431 178.411C282.647 178.208 279.746 180.741 265.95 187.562C249.443 195.733 246.659 194.935 242.875 198.117C239.091 201.299 236.912 208.864 237.561 217.036C238.209 225.208 244.129 231.762 248.901 231.56C250.002 231.52 251.092 231.334 252.143 231.007C250.057 230.346 248.306 228.905 247.254 226.985Z" fill="#4D4D4D"/>
<path d="M283.051 184.582C271.115 192.35 256.798 193.542 247.849 204.884C245.704 208.147 244.512 211.945 244.406 215.85C244.301 219.755 245.287 223.611 247.254 226.985C248.293 228.895 250.024 230.334 252.09 231.007C255.534 229.943 259.774 227.357 271.71 222.207C280.872 218.26 285.74 214.844 288.419 209.864C290.332 206.3 291.055 202.043 291.799 195.734C292.373 191.977 292.355 188.153 291.745 184.401C289.779 182.422 285.57 183.071 283.051 184.582Z" fill="#333333"/>
<path d="M200.541 134.071C200.541 134.071 196.587 125.697 194.865 124.495C193.144 123.292 188.988 123.324 186.171 123.048C184.045 122.835 179.613 123.793 179.316 125.687C179.018 127.581 180.453 127.889 182.345 128.528C184.237 129.166 186.873 129.719 187.659 130.4C188.446 131.081 188.382 132.262 186.915 131.975C185.448 131.688 183.344 130.124 181.601 130.56C180.272 130.911 179.964 132.922 182.791 133.678C185.618 134.433 184.917 135.082 186.628 135.806C188.339 136.529 190.486 137.934 192.442 137.721C194.706 137.498 199.202 140.626 199.202 140.626L204.729 136.21L200.541 134.071Z" fill="#FFC1C3"/>
<path d="M260.593 132.113L237.571 137.721L207.875 130.432C206.071 129.773 204.112 129.672 202.25 130.142C200.389 130.613 198.712 131.633 197.437 133.071C193.887 138.211 195.503 139.956 195.503 139.956L234.329 157.31C234.329 157.31 239.835 160.503 249.018 159.023C257.521 157.651 282.498 164.003 282.498 164.003C284.329 156.951 283.714 149.486 280.755 142.829C275.537 131.113 264.175 130.517 260.593 132.113Z" fill="#00A4EE"/>
<path d="M254.62 132.23C254.62 132.23 238.677 135.848 228.983 143.318C220.48 149.851 215.485 165.014 216.293 191.914C216.856 210.662 215.878 211.184 217.037 217.334C217.749 221.133 221.288 226.708 226.741 229.549C233.267 232.912 239.251 235.519 248.402 233.529C257.553 231.539 278.268 221.069 278.268 221.069C278.268 221.069 284.571 206.981 284.571 199.788C284.571 192.595 285.634 166.589 282.754 153.767C277.896 132.113 261.092 130.805 254.62 132.23Z" fill="#00B0FF"/>
<path d="M256.703 123.718L258.276 138.53C258.276 138.53 257.744 144.584 249.199 146.095C240.441 147.638 238.815 141.69 238.815 141.69L239.038 138.147L237.901 129.996L256.703 123.718Z" fill="#FFC1C3"/>
<path d="M223.276 96.7122C223.276 96.7122 221.681 112.099 221.947 117.238C222.181 121.909 224.317 131.315 230.833 133.699C236.253 135.678 242.652 132.305 249.348 127.591C256.044 122.877 258.18 121.718 259.169 117.749C260.157 113.78 266.97 94.7012 266.97 94.7012L223.276 96.7122Z" fill="#FFC1C3"/>
<path d="M267.65 91.8708C267.145 89.1209 266.027 86.5202 264.38 84.2618C262.734 82.0035 260.6 80.1454 258.138 78.8255C249.709 74.367 241.281 74.5692 233.628 76.9634C226.422 79.2085 222.999 82.539 221.533 85.4758C220.827 86.8518 220.36 88.3378 220.151 89.8704C220.108 91.7603 220.531 93.6317 221.384 95.3184C222.617 97.7231 224.944 99.3086 226.698 101.341C228.084 102.923 228.942 104.898 229.153 106.991C229.386 109.018 229.457 111.06 229.366 113.099L231.662 113.939C231.662 113.939 231.226 108.428 234.393 108.023C239.219 107.406 239.58 114.408 238.847 116.461C235.754 125.272 240.494 126.878 240.494 126.878C246 129.145 251.877 129.73 256.862 126.038C260.941 122.847 263.973 118.508 265.567 113.578C267.842 106.938 268.979 98.7553 267.65 91.8708Z" fill="#30384F"/>
<path d="M153.626 168.451L148.195 165.557C148.195 165.557 146.579 166.621 143.146 164.716C139.033 162.397 139.235 160.13 137.63 158.747C135.907 157.409 134.116 156.162 132.263 155.012C129.818 153.246 132.412 148.745 136.142 148.628C137.343 148.574 139.097 148.628 142.7 150.117C144.943 151.011 147.876 154.203 147.876 154.203C147.131 152.983 146.299 151.816 145.389 150.713C144.571 149.926 145.697 148.213 147.334 149.575C148.971 150.937 151.447 154.15 151.586 155.289C151.915 156.82 152.37 158.322 152.946 159.779L158.112 162.769L153.626 168.451Z" fill="#FFC1C3"/>
<path d="M222.394 150.554L188.786 168.451L159.291 156.746C159.291 156.746 153.52 153.735 149.269 160.513C148.645 161.578 148.291 162.78 148.238 164.013C148.184 165.246 148.432 166.474 148.96 167.589C148.96 167.589 174.342 183.146 183.216 185.944C187.617 187.317 192.325 187.806 201.604 187.008C211.935 186.136 220.257 182.39 227.113 178.911C231.842 176.495 237.965 168.919 236.105 159.641C234.213 150.181 228.356 148.159 222.394 150.554Z" fill="#00A4EE"/>
<path d="M262.166 183.188C253.121 186.668 243.672 190.349 240.09 191.35C236.508 192.35 232.14 199.713 232.533 208.077C232.927 216.44 234.33 223.803 237.508 226.783C240.685 229.762 246.457 232.954 255.576 228.581C264.696 224.208 277.248 218.824 280.83 216.238C284.412 213.652 287.707 210.503 288.982 206.661C290.9 199.866 291.707 192.806 291.373 185.753C291.012 178.304 286.792 171.42 279.831 174.601C272.869 177.783 269.967 180.198 262.166 183.188Z" fill="#0077CC"/>
<path d="M242.875 198.117C246.659 194.925 249.443 195.733 265.95 187.562C279.767 180.741 282.647 178.208 286.431 178.411C289.024 178.549 293.584 180.603 291.799 195.733C291.055 202.043 290.332 206.3 288.419 209.864C285.74 214.844 280.872 218.26 271.71 222.207C256.001 228.975 253.642 231.369 248.848 231.56C244.055 231.752 238.103 225.176 237.507 217.036C236.912 208.896 239.144 201.299 242.875 198.117Z" fill="#30384F"/>
<path d="M265.546 205.98L275.112 201.118C275.112 201.118 277.705 199.553 280.033 207.502C280.936 210.556 280.67 219.654 280.692 229.219C280.692 244.499 280.628 261.577 280.628 261.577L271.062 266.44C271.062 266.44 270.403 260.194 270.35 252.161C270.233 235.657 270.105 210.226 265.546 205.98Z" fill="#596072"/>
<path d="M265.546 205.98V256.651L260.401 255.055V261.439L271.03 266.44V216.653C271.03 216.653 270.796 211.758 268.819 208.609C265.535 203.331 265.546 205.98 265.546 205.98Z" fill="#454C61"/>
<g opacity="0.8">
<path opacity="0.8" d="M75.2932 125.867L0.892805 169.834L0 169.387V114.993L75.2932 71.4728L76.1648 71.9197L75.2932 125.867Z" fill="#75C1F8"/>
<path opacity="0.8" d="M76.1861 126.314L0.892822 169.824V115.429L76.1861 71.9091V126.314Z" fill="white"/>
<path opacity="0.8" d="M76.1861 77.1549L0.892822 120.675V115.429L76.1861 71.9091V77.1549Z" fill="#3FA9F5"/>
<path opacity="0.8" d="M37.1046 108.257L7.78015 125.197V124.027L37.1046 107.087V108.257Z" fill="#898E9B"/>
<path opacity="0.8" d="M37.1046 113.301L7.78015 130.251V129.081L37.1046 112.13V113.301Z" fill="#898E9B"/>
<path opacity="0.8" d="M37.1046 118.345L7.78015 135.295V134.124L37.1046 117.174V118.345Z" fill="#898E9B"/>
<path opacity="0.8" d="M37.1046 123.388L7.78015 140.339V139.168L37.1046 122.218V123.388Z" fill="#898E9B"/>
<path opacity="0.8" d="M37.1046 128.442L7.78015 145.382V144.212L37.1046 127.272V128.442Z" fill="#898E9B"/>
<path opacity="0.8" d="M69.6495 121.441L45.0442 135.657V101.16L69.6495 86.9442V121.441Z" fill="#A9D8FA"/>
<path opacity="0.8" d="M37.1046 133.486L7.78015 150.437V149.266L37.1046 132.316V133.486Z" fill="#898E9B"/>
</g>
<g style="mix-blend-mode:multiply" opacity="0.3">
<path d="M105.744 135.135V135.252C105.811 135.464 105.92 135.66 106.064 135.828C106.208 135.996 106.385 136.134 106.584 136.231L121.39 144.744C122.073 145.104 122.839 145.277 123.611 145.244C123.969 145.234 124.324 145.191 124.674 145.116C124.709 145.11 124.745 145.11 124.78 145.116C124.908 145.116 125.035 145.042 125.163 144.989C125.322 144.933 125.475 144.862 125.62 144.776L165.881 121.505C166.13 121.362 166.346 121.17 166.519 120.941V120.877C166.592 120.766 166.646 120.644 166.678 120.515C166.678 120.515 166.678 120.515 166.678 120.451C166.678 120.388 166.678 120.27 166.678 120.207C166.678 119.951 166.678 117.153 166.678 117.153L164.414 118.217L151.044 110.492C150.386 110.153 149.657 109.976 148.918 109.976C148.178 109.976 147.45 110.153 146.792 110.492L117.032 127.687L108.529 132.582C107.732 131.794 105.659 132.348 105.659 132.348V134.933C105.678 135.004 105.707 135.072 105.744 135.135Z" fill="#616C8C"/>
</g>
<path d="M174.756 14.6734C174.161 14.1776 173.537 13.7192 172.885 13.3008C172.407 13.0241 172.078 12.8538 171.823 12.7474L171.663 12.673L171.451 12.5878C170.961 12.5099 170.46 12.6201 170.048 12.8964L84.1576 62.5454C83.4424 63.012 82.8468 63.6403 82.4185 64.3796C81.9902 65.1188 81.7412 65.9484 81.6917 66.8016V129.815C81.6605 130.118 81.7088 130.423 81.8319 130.701C81.9549 130.979 82.1484 131.22 82.3932 131.401C82.3932 131.401 84.7847 133.337 85.5074 133.305C86.2302 133.273 86.2195 130.815 86.2195 130.815L86.0176 130.166L170.058 81.5814C170.773 81.1147 171.369 80.4864 171.797 79.7472C172.226 79.0079 172.475 78.1783 172.524 77.3251V20.3235C172.589 20.2835 172.649 20.2371 172.705 20.1852C173.885 19.1531 174.756 14.6734 174.756 14.6734Z" fill="#B0B5C5"/>
<path d="M172.545 27.3995V20.3235C172.61 20.2835 172.67 20.2371 172.726 20.1852C173.884 19.1212 174.756 14.6734 174.756 14.6734C174.161 14.1776 173.537 13.7192 172.885 13.3008C172.407 13.0241 172.078 12.8538 171.822 12.7474L171.663 12.673L171.45 12.5878C170.961 12.5099 170.46 12.6201 170.047 12.8964L84.1575 62.5454C83.4417 62.9916 82.8525 63.6145 82.4463 64.3543L92.5754 71.0578L172.481 27.4314L172.545 27.3995Z" fill="#F3F3F4"/>
<path d="M166.742 119.504C166.742 119.504 166.742 119.504 166.742 119.441C166.742 119.377 166.742 119.26 166.742 119.196C166.742 118.94 166.742 116.142 166.742 116.142L164.478 117.206L151.107 109.481C150.448 109.147 149.72 108.973 148.982 108.973C148.243 108.973 147.515 109.147 146.856 109.481L108.593 131.571C107.796 130.783 105.723 131.337 105.723 131.337V133.922C105.712 133.996 105.712 134.072 105.723 134.146V134.263C105.79 134.474 105.898 134.67 106.043 134.839C106.187 135.007 106.364 135.144 106.563 135.242L121.368 143.754C122.026 144.093 122.755 144.27 123.494 144.27C124.234 144.27 124.962 144.093 125.62 143.754L165.881 120.483C166.129 120.34 166.346 120.148 166.519 119.919V119.856C166.613 119.753 166.689 119.634 166.742 119.504Z" fill="#A7ADBF"/>
<path d="M166.721 116.142L164.457 117.206L151.086 109.481C150.427 109.147 149.699 108.973 148.96 108.973C148.222 108.973 147.494 109.147 146.835 109.481L117.074 126.676L123.59 135.71V144.222C124.29 144.224 124.98 144.052 125.599 143.722L165.86 120.451C166.108 120.308 166.325 120.117 166.498 119.887V119.824C166.571 119.713 166.625 119.591 166.657 119.462C166.657 119.462 166.657 119.462 166.657 119.398C166.657 119.334 166.657 119.217 166.657 119.153C166.774 118.94 166.721 116.142 166.721 116.142Z" fill="#8189A3"/>
<path d="M165.902 117.781L125.641 141.052C124.984 141.39 124.255 141.567 123.515 141.567C122.776 141.567 122.047 141.39 121.39 141.052L106.584 132.539C106.326 132.455 106.102 132.291 105.943 132.071C105.784 131.851 105.698 131.587 105.698 131.315C105.698 131.044 105.784 130.779 105.943 130.56C106.102 130.34 106.326 130.176 106.584 130.092L146.835 106.821C147.494 106.487 148.222 106.313 148.96 106.313C149.699 106.313 150.427 106.487 151.086 106.821L165.902 115.386C166.142 115.481 166.348 115.646 166.493 115.86C166.637 116.073 166.715 116.325 166.715 116.584C166.715 116.842 166.637 117.094 166.493 117.307C166.348 117.521 166.142 117.686 165.902 117.781Z" fill="#E2E3E6"/>
<path d="M141.69 120.983L130.966 127.187V104.129L141.69 97.9359V120.983Z" fill="#8189A3"/>
<path d="M130.977 126.942L127.246 124.793V101.735L130.977 103.895V126.942Z" fill="#A7ADBF"/>
<path d="M171.727 79.9214L87.9307 128.357L87.92 67.8125L171.727 19.3765V79.9214Z" fill="#00B0FF"/>
<path d="M110.187 89.0211C110.012 89.1219 109.859 89.1379 109.727 89.0691C109.602 88.9895 109.54 88.8487 109.54 88.6465C109.54 88.4372 109.602 88.2243 109.727 88.0079C109.859 87.7807 110.012 87.6167 110.187 87.5159C110.362 87.4151 110.513 87.4045 110.638 87.4841C110.769 87.5529 110.835 87.692 110.835 87.9013C110.835 88.1034 110.772 88.3163 110.647 88.5399C110.522 88.7563 110.369 88.9167 110.187 89.0211ZM115.155 86.0981C114.485 86.4833 113.872 86.6448 113.315 86.5826C112.764 86.5168 112.33 86.2437 112.01 85.7631C111.691 85.2826 111.532 84.6416 111.532 83.8403C111.532 83.0462 111.691 82.2289 112.01 81.3884C112.33 80.5406 112.764 79.767 113.315 79.0676C113.872 78.3573 114.485 77.8096 115.155 77.4244C115.63 77.1508 116.04 76.9871 116.384 76.9335C116.735 76.8763 117.088 76.9111 117.445 77.038C117.52 77.0597 117.57 77.0995 117.595 77.1573C117.62 77.2079 117.633 77.2801 117.633 77.3739C117.633 77.5183 117.586 77.6644 117.492 77.8123C117.404 77.9565 117.301 78.0629 117.182 78.1313C117.063 78.1997 116.954 78.2157 116.854 78.1795C116.597 78.0744 116.347 78.038 116.103 78.0701C115.859 78.095 115.543 78.219 115.155 78.4423C114.667 78.7231 114.216 79.1303 113.803 79.6639C113.396 80.1939 113.071 80.7853 112.827 81.4383C112.589 82.0804 112.47 82.7011 112.47 83.3003C112.47 83.9067 112.589 84.3942 112.827 84.7627C113.071 85.1276 113.396 85.3411 113.803 85.403C114.216 85.4614 114.667 85.3502 115.155 85.0694C115.755 84.7237 116.331 84.1543 116.882 83.361C116.988 83.2132 117.091 83.1105 117.191 83.0529C117.31 82.9845 117.407 82.9792 117.482 83.0371C117.564 83.0841 117.604 83.187 117.604 83.3459C117.604 83.4975 117.554 83.6598 117.454 83.8329C116.778 84.8498 116.012 85.6049 115.155 86.0981ZM122.554 81.8408C121.828 82.2584 121.181 82.447 120.611 82.4064C120.048 82.3622 119.61 82.1017 119.297 81.6248C118.984 81.1406 118.828 80.4799 118.828 79.6424C118.828 78.805 118.984 77.9679 119.297 77.1309C119.61 76.294 120.048 75.5294 120.611 74.8372C121.181 74.1414 121.828 73.5847 122.554 73.1671C123.274 72.7531 123.915 72.5681 124.478 72.6123C125.048 72.6529 125.489 72.9116 125.802 73.3885C126.121 73.8618 126.28 74.5172 126.28 75.3546C126.28 76.192 126.121 77.0346 125.802 77.8824C125.489 78.7193 125.051 79.4839 124.488 80.1761C123.924 80.8683 123.28 81.4232 122.554 81.8408ZM122.554 80.8229C123.086 80.5169 123.565 80.0971 123.99 79.5635C124.416 79.0227 124.747 78.4313 124.985 77.7891C125.223 77.147 125.342 76.5155 125.342 75.8947C125.342 75.2738 125.223 74.7791 124.985 74.4106C124.747 74.0421 124.416 73.8358 123.99 73.7919C123.571 73.7443 123.092 73.8754 122.554 74.185C122.016 74.4946 121.534 74.9162 121.109 75.4498C120.689 75.9797 120.361 76.5658 120.123 77.2079C119.885 77.8501 119.766 78.4816 119.766 79.1024C119.766 79.7233 119.885 80.2179 120.123 80.5865C120.361 80.955 120.692 81.1648 121.118 81.216C121.543 81.26 122.022 81.1289 122.554 80.8229ZM128.297 78.4281C128.16 78.5073 128.044 78.5198 127.95 78.4655C127.856 78.4112 127.809 78.3046 127.809 78.1458V70.8149C127.809 70.6488 127.856 70.4883 127.95 70.3332C128.044 70.1709 128.16 70.0502 128.297 69.971L129.996 68.9935C130.703 68.5867 131.332 68.4054 131.883 68.4495C132.433 68.4936 132.862 68.7487 133.169 69.2148C133.475 69.6737 133.628 70.311 133.628 71.1268C133.628 71.9425 133.475 72.7598 133.169 73.5788C132.862 74.3977 132.433 75.146 131.883 75.8238C131.332 76.5015 130.703 77.0438 129.996 77.4507L128.297 78.4281ZM129.996 76.4544C130.515 76.1556 130.978 75.752 131.385 75.2437C131.798 74.7318 132.117 74.1655 132.343 73.545C132.574 72.9137 132.69 72.2876 132.69 71.6668C132.69 71.046 132.574 70.5567 132.343 70.199C132.117 69.8377 131.798 69.6387 131.385 69.602C130.978 69.5617 130.515 69.6909 129.996 69.9897L128.785 70.6864V77.1511L129.996 76.4544ZM135.648 74.1986C135.511 74.2778 135.395 74.2903 135.301 74.236C135.207 74.1817 135.16 74.0751 135.16 73.9163V66.5854C135.16 66.4193 135.207 66.2588 135.301 66.1037C135.395 65.9414 135.511 65.8207 135.648 65.7415L139.891 63.3005C140.035 63.2177 140.15 63.2017 140.238 63.2523C140.326 63.2958 140.369 63.3969 140.369 63.5557C140.369 63.7073 140.326 63.8552 140.238 63.9995C140.15 64.1437 140.035 64.2573 139.891 64.3401L136.136 66.5002V69.1315L138.83 67.5817C138.968 67.5025 139.08 67.4882 139.168 67.5388C139.262 67.5787 139.309 67.6744 139.309 67.826C139.309 67.9776 139.262 68.131 139.168 68.286C139.08 68.4303 138.968 68.542 138.83 68.6212L136.136 70.1711V72.8782L139.891 70.7181C140.035 70.6353 140.15 70.6156 140.238 70.6591C140.326 70.7025 140.369 70.8001 140.369 70.9517C140.369 71.1105 140.326 71.2656 140.238 71.4171C140.15 71.5613 140.035 71.6749 139.891 71.7577L135.648 74.1986ZM141.554 73.3347C141.416 73.4139 141.304 73.4245 141.216 73.3666C141.128 73.316 141.085 73.2112 141.085 73.0524C141.085 72.8936 141.128 72.7348 141.216 72.5762C141.304 72.4247 141.416 72.3093 141.554 72.2301C141.936 72.0105 142.126 71.6805 142.126 71.2402V68.7171C142.126 68.2118 142.227 67.7535 142.427 67.3423C142.227 67.1471 142.126 66.8005 142.126 66.3023V63.7793C142.126 63.3389 141.936 63.2285 141.554 63.4481C141.416 63.5273 141.304 63.5416 141.216 63.491C141.128 63.4403 141.085 63.3355 141.085 63.1767C141.085 63.0179 141.128 62.8592 141.216 62.7005C141.304 62.5418 141.416 62.4228 141.554 62.3436C142.574 61.7568 143.084 62.0517 143.084 63.2284V65.7515C143.084 66.1919 143.272 66.304 143.647 66.088C143.785 66.0088 143.897 65.9982 143.985 66.0561C144.079 66.1031 144.126 66.2061 144.126 66.3649C144.126 66.5237 144.079 66.6806 143.985 66.8357C143.897 66.9872 143.785 67.1025 143.647 67.1817C143.272 67.3977 143.084 67.7259 143.084 68.1663V70.6894C143.084 71.8661 142.574 72.7478 141.554 73.3347ZM145.558 67.165C145.796 67.0281 145.977 67.0176 146.103 67.1333C146.228 67.249 146.29 67.4729 146.29 67.8049C146.29 68.1009 146.231 68.4528 146.112 68.8605C145.999 69.2646 145.859 69.6271 145.69 69.9481C145.521 70.2763 145.364 70.4818 145.22 70.5646C145.145 70.6078 145.086 70.6132 145.042 70.5806C145.004 70.5517 144.986 70.4975 144.986 70.4181C144.986 70.3315 145.001 70.2394 145.033 70.142C145.064 70.0518 145.114 69.9364 145.183 69.7957C145.264 69.619 145.324 69.4729 145.361 69.3575C145.399 69.2492 145.417 69.1337 145.417 69.011C145.417 68.9027 145.395 68.8215 145.352 68.7673C145.314 68.7167 145.258 68.6697 145.183 68.6263C145.101 68.5792 145.039 68.5286 144.995 68.4744C144.951 68.4202 144.929 68.3317 144.929 68.209C144.929 68.0141 144.986 67.8192 145.098 67.6245C145.217 67.4261 145.37 67.273 145.558 67.165ZM145.38 64.1814C145.205 64.2822 145.051 64.2982 144.92 64.2295C144.795 64.1499 144.732 64.009 144.732 63.8069C144.732 63.5975 144.795 63.3846 144.92 63.1682C145.051 62.941 145.205 62.777 145.38 62.6762C145.555 62.5754 145.705 62.5648 145.83 62.6444C145.962 62.7132 146.027 62.8523 146.027 63.0616C146.027 63.2638 145.965 63.4766 145.84 63.7002C145.715 63.9166 145.561 64.077 145.38 64.1814Z" fill="white"/>
<path d="M171.791 79.8788L87.9945 128.315L87.293 127.91L171.089 79.4745L171.791 79.8788Z" fill="#F3F3F4"/>
<path d="M171.961 79.9852L171.078 79.4745V18.9296L171.961 19.4403V79.9852Z" fill="#9FA5B9"/>
<path d="M175.245 16.1205C175.245 14.5457 174.182 13.9073 172.779 14.6947L86.8678 64.3543C86.1527 64.8209 85.557 65.4492 85.1287 66.1885C84.7004 66.9277 84.4515 67.7573 84.402 68.6105V131.592C84.402 133.167 85.4648 133.805 86.8678 133.018L172.79 83.369C173.505 82.9023 174.101 82.274 174.529 81.5348C174.957 80.7955 175.206 79.9659 175.256 79.1127L175.245 16.1205ZM87.9307 128.357V67.8124L171.737 19.3765V79.9214L87.9307 128.357Z" fill="#D0D3DC"/>
<g opacity="0.8">
<path opacity="0.8" d="M234.117 69.068L159.717 113.024L158.824 112.577V58.1827L234.117 14.6627L234.989 15.1203L234.117 69.068Z" fill="#454C61"/>
<path opacity="0.8" d="M235.01 69.5149L159.717 113.024V58.6296L235.01 15.1096V69.5149Z" fill="#30384F"/>
<path opacity="0.8" d="M166.785 64.5777L164.691 65.7907V64.0776L166.785 62.8646V64.5777Z" fill="white"/>
<path opacity="0.8" d="M197.416 46.8824L169.123 63.2263V61.5132L197.416 45.1586V46.8824Z" fill="#3FA9F5"/>
<path opacity="0.8" d="M166.785 68.5999L164.691 69.8129V68.0997L166.785 66.8867V68.5999Z" fill="white"/>
<path opacity="0.8" d="M182.185 59.7043L169.123 67.2485V65.5353L182.185 57.9805V59.7043Z" fill="#3FA9F5"/>
<path opacity="0.8" d="M166.785 72.6219L164.691 73.835V72.1218L166.785 70.9088V72.6219Z" fill="white"/>
<path opacity="0.8" d="M188.956 59.8107L169.123 71.2706V69.5575L188.956 58.0976V59.8107Z" fill="#3FA9F5"/>
<path opacity="0.8" d="M166.785 76.6441L164.691 77.8571V76.144L166.785 74.931V76.6441Z" fill="white"/>
<path opacity="0.8" d="M192.793 61.6196L169.123 75.3034V73.5796L192.793 59.9065V61.6196Z" fill="#3FA9F5"/>
<path opacity="0.8" d="M166.785 82.4965L164.691 83.7095V81.9963L166.785 80.7833V82.4965Z" fill="white"/>
<path opacity="0.8" d="M184.109 72.4836L169.123 81.1451V79.4319L184.109 70.7705V72.4836Z" fill="#F5D533"/>
<path opacity="0.8" d="M166.785 86.5186L164.691 87.7316V86.0184L166.785 84.8054V86.5186Z" fill="white"/>
<path opacity="0.8" d="M196.63 69.2702L169.123 85.1672V83.4541L196.63 67.5571V69.2702Z" fill="#F5D533"/>
<path opacity="0.8" d="M166.785 90.5407L164.691 91.7537V90.0406L166.785 88.8276V90.5407Z" fill="white"/>
<path opacity="0.8" d="M179.964 82.9327L169.123 89.1894V87.4762L179.964 81.2089V82.9327Z" fill="#F5D533"/>
<path opacity="0.8" d="M166.785 94.5629L164.691 95.7759V94.0628L166.785 92.8497V94.5629Z" fill="white"/>
<path opacity="0.8" d="M188.52 82.007L169.123 93.2221V91.4984L188.52 80.2938V82.007Z" fill="#F5D533"/>
<path opacity="0.8" d="M211.382 38.4019L212.977 37.4761V36.1674L211.382 37.0931V38.4019Z" fill="white"/>
<path opacity="0.8" d="M225.859 28.7189L214.752 35.1458V36.4546L225.859 30.0277V28.7189Z" fill="white"/>
<path opacity="0.8" d="M211.382 41.4663L212.977 40.5406V39.2424L211.382 40.1575V41.4663Z" fill="white"/>
<path opacity="0.8" d="M219.885 35.2416L214.752 38.2103V39.5191L219.885 36.5504V35.2416Z" fill="white"/>
<path opacity="0.8" d="M211.382 44.5415L212.977 43.6157V42.3069L211.382 43.2327V44.5415Z" fill="white"/>
<path opacity="0.8" d="M222.542 36.7739L214.752 41.2748V42.5836L222.542 38.0827V36.7739Z" fill="white"/>
<path opacity="0.8" d="M211.382 47.606L212.977 46.6803V45.3715L211.382 46.2972V47.606Z" fill="white"/>
<path opacity="0.8" d="M224.052 38.9764L214.752 44.3393V45.6481L224.052 40.2852V38.9764Z" fill="white"/>
<path opacity="0.8" d="M211.382 52.0643L212.977 51.1386V49.8405L211.382 50.7555V52.0643Z" fill="white"/>
<path opacity="0.8" d="M222 44.6266L214.752 48.8083V50.1171L222 45.9247V44.6266Z" fill="white"/>
<path opacity="0.8" d="M211.382 55.1395L212.977 54.2138V52.905L211.382 53.8307V55.1395Z" fill="white"/>
<path opacity="0.8" d="M214.752 51.8728V53.1816L228.048 45.4991V44.1903L214.752 51.8728Z" fill="white"/>
<path opacity="0.8" d="M211.382 58.204L212.977 57.2783V55.9695L211.382 56.8952V58.204Z" fill="white"/>
<path opacity="0.8" d="M219.992 51.9154L214.752 54.9373V56.2461L219.992 53.2242V51.9154Z" fill="white"/>
<path opacity="0.8" d="M211.382 61.2685L212.977 60.3427V59.0339L211.382 59.9597V61.2685Z" fill="white"/>
<path opacity="0.8" d="M214.752 59.3212L224.126 53.9052V52.5964L214.752 58.0124V59.3212Z" fill="white"/>
</g>
<g style="mix-blend-mode:multiply" opacity="0.3">
<path d="M141.435 187.615L102.821 166.238C102.02 165.834 101.136 165.623 100.239 165.623C99.3416 165.623 98.457 165.834 97.6559 166.238L72.3598 179.975C72.0352 180.178 71.7715 180.465 71.5966 180.806C71.4216 181.147 71.3419 181.529 71.3659 181.912C71.3898 182.295 71.5165 182.663 71.7326 182.98C71.9487 183.296 72.2462 183.548 72.5936 183.71L110.91 205.863C111.709 206.267 112.592 206.478 113.487 206.478C114.383 206.478 115.265 206.267 116.065 205.863L141.138 191.371C142.562 190.541 142.859 188.434 141.435 187.615Z" fill="#878FA8"/>
</g>
<path d="M141.138 190.307L116.065 204.799C115.265 205.203 114.383 205.414 113.487 205.414C112.592 205.414 111.709 205.203 110.91 204.799L72.6467 182.646C72.2993 182.484 72.0018 182.232 71.7857 181.916C71.5696 181.599 71.4429 181.23 71.419 180.848C71.395 180.465 71.4747 180.083 71.6497 179.742C71.8246 179.401 72.0883 179.114 72.4129 178.911L97.709 165.174C98.5101 164.77 99.3947 164.559 100.292 164.559C101.189 164.559 102.073 164.77 102.875 165.174L141.488 186.551C142.859 187.37 142.562 189.477 141.138 190.307Z" fill="#626879"/>
<path d="M141.138 189.243L116.065 203.735C115.265 204.139 114.383 204.35 113.487 204.35C112.592 204.35 111.709 204.139 110.91 203.735L72.6467 181.582C71.2224 180.762 71.2224 179.453 72.6467 178.602L97.709 164.11C98.5101 163.706 99.3947 163.495 100.292 163.495C101.189 163.495 102.073 163.706 102.875 164.11L141.138 186.21C142.562 187.083 142.562 188.413 141.138 189.243Z" fill="#CBCED9"/>
<path opacity="0.6" d="M111.888 201.32L75.1656 180.092L100.239 165.599L136.961 186.827L111.888 201.32Z" fill="#00B0FF"/>
<path style="mix-blend-mode:overlay" d="M116.32 174.899L100.239 165.599L75.1656 180.092L100.451 194.723C100.451 194.499 100.536 194.276 100.6 194.052C101.774 189.954 103.774 186.14 106.478 182.846C109.182 179.551 112.531 176.847 116.32 174.899Z" fill="url(#paint0_linear_1_242)"/>
<path d="M127.544 194.637C127.674 194.68 127.787 194.762 127.867 194.873C127.948 194.984 127.991 195.118 127.991 195.255C127.991 195.392 127.948 195.525 127.867 195.636C127.787 195.747 127.674 195.829 127.544 195.872C127.214 196.038 126.85 196.125 126.481 196.125C126.112 196.125 125.747 196.038 125.418 195.872C125.288 195.829 125.174 195.747 125.094 195.636C125.014 195.525 124.97 195.392 124.97 195.255C124.97 195.118 125.014 194.984 125.094 194.873C125.174 194.762 125.288 194.68 125.418 194.637C125.747 194.471 126.112 194.384 126.481 194.384C126.85 194.384 127.214 194.471 127.544 194.637Z" fill="#666C7D"/>
<g style="mix-blend-mode:multiply" opacity="0.3">
<path d="M217.228 121.239C217.108 120.693 216.952 120.157 216.76 119.632C216.76 119.558 216.707 119.483 216.686 119.419L216.516 118.994L216.399 118.717L216.218 118.313L216.07 117.993L215.878 117.61L215.687 117.259C215.623 117.142 215.559 117.014 215.485 116.897C215.411 116.78 215.326 116.621 215.241 116.482L215.06 116.185L214.603 115.493L214.454 115.291L214.093 114.812L213.891 114.556C213.774 114.418 213.667 114.28 213.551 114.152L213.317 113.897L212.966 113.514L212.722 113.28L212.339 112.928L212.094 112.716L211.659 112.375L211.446 112.216C211.223 112.056 210.989 111.907 210.755 111.769C209.96 111.294 209.136 110.867 208.289 110.492H208.204L207.705 110.29L207.078 110.056C206.984 110.03 206.891 109.998 206.801 109.96H206.599L205.94 109.811L205.558 109.726C205.234 109.68 204.907 109.655 204.58 109.651H204.516H204.293C204.054 109.651 203.816 109.672 203.581 109.715L203.23 109.779C203.007 109.779 202.773 109.896 202.55 109.97L202.231 110.077C201.892 110.207 201.562 110.36 201.243 110.534C200.988 110.683 200.732 110.843 200.499 111.003L200.339 111.109H200.275C200.073 111.247 199.882 111.407 199.691 111.566C199.608 111.632 199.53 111.703 199.457 111.779L199.106 112.141L199.042 112.205C198.843 112.425 198.655 112.656 198.479 112.897C197.913 113.705 197.564 114.645 197.465 115.627C197.366 116.609 197.522 117.6 197.916 118.504C197.916 118.504 204.984 124.154 209.257 125.463C213.529 126.772 217.504 125.016 217.504 122.388C217.452 121.996 217.359 121.611 217.228 121.239Z" fill="#616C8C"/>
</g>
<path d="M197.299 118.11C197.299 118.11 204.527 123.665 208.789 124.974C213.051 126.282 217.047 124.527 217.047 121.898C217.047 119.27 214.38 113.503 210.436 111.258C206.493 109.013 203.868 108.3 200.871 109.938C197.873 111.577 195.981 114.45 197.299 118.11Z" fill="#C6CAD6"/>
<path d="M200.881 109.843C199.734 110.384 198.754 111.225 198.044 112.277C197.335 113.33 196.924 114.555 196.853 115.823C196.858 115.869 196.858 115.915 196.853 115.961C196.853 115.961 204.219 121.611 208.544 122.952C212.434 124.154 216.069 122.835 216.803 120.643C216.208 117.738 213.752 113.195 210.341 111.162C206.493 108.864 203.868 108.204 200.881 109.843Z" fill="#616C8C"/>
<path d="M200.881 109.843C199.521 110.561 198.388 111.645 197.608 112.971C198.453 113.395 199.331 113.751 200.233 114.035C204.112 115.227 207.758 113.918 208.491 111.715C208.757 110.651 208.491 110.46 207.928 109.832C205.292 108.683 203.198 108.534 200.881 109.843Z" fill="white"/>
<path d="M204.197 110.098C205.26 110.768 205.983 112.077 205.707 112.226C205.43 112.375 204.282 111.981 203.156 111.311C202.029 110.641 201.359 109.96 201.636 109.79C202.057 109.639 202.508 109.588 202.953 109.642C203.397 109.695 203.823 109.852 204.197 110.098Z" fill="#84C8F9"/>
<defs>
<linearGradient id="paint0_linear_1_242" x1="41.2372" y1="152.061" x2="132.619" y2="195.395" gradientUnits="userSpaceOnUse">
<stop stop-color="#30384F" stop-opacity="0"/>
<stop offset="1" stop-color="#EDFAFF"/>
</linearGradient>
</defs>
</svg>
