<svg width="34" height="34" viewBox="0 0 34 34" fill="none" xmlns="http://www.w3.org/2000/svg">
<path d="M27.8889 4.76001H6.11117C5.75282 4.76001 5.40915 4.90236 5.15576 5.15576C4.90236 5.40915 4.76001 5.75282 4.76001 6.11117V27.8892C4.7601 28.2475 4.90249 28.5911 5.15588 28.8444C5.40926 29.0977 5.75288 29.24 6.11117 29.24H17.8354V19.7601H14.6452V16.0657H17.8354V13.3409C17.8354 10.1789 19.7666 8.45751 22.5872 8.45751C23.9384 8.45751 25.0995 8.55781 25.4381 8.60303V11.9075L23.4818 11.9085C21.9477 11.9085 21.6509 12.6375 21.6509 13.7071V16.066H25.3093L24.8329 19.7605H21.6509V29.24H27.8892C28.2475 29.2399 28.5911 29.0975 28.8444 28.8441C29.0977 28.5908 29.24 28.2471 29.24 27.8889V6.11117C29.24 5.75282 29.0977 5.40915 28.8443 5.15576C28.5909 4.90236 28.2472 4.76001 27.8889 4.76001Z" fill="white"/>
</svg>
