<svg width="35" height="34" viewBox="0 0 35 34" fill="none" xmlns="http://www.w3.org/2000/svg">
<path d="M25.9546 4.25H8.95459C6.54626 4.25 4.70459 6.09167 4.70459 8.5V25.5C4.70459 27.9083 6.54626 29.75 8.95459 29.75H25.9546C28.3629 29.75 30.2046 27.9083 30.2046 25.5V8.5C30.2046 6.09167 28.3629 4.25 25.9546 4.25ZM17.4546 12.75C19.8629 12.75 21.7046 14.5917 21.7046 17C21.7046 19.4083 19.8629 21.25 17.4546 21.25C15.0463 21.25 13.2046 19.4083 13.2046 17C13.2046 14.5917 15.0463 12.75 17.4546 12.75ZM22.8379 9.91667C22.8379 8.925 23.6879 8.21667 24.5379 8.21667C25.3879 8.21667 26.2379 9.06667 26.2379 9.91667C26.2379 10.7667 25.5296 11.6167 24.5379 11.6167C23.5463 11.6167 22.8379 10.9083 22.8379 9.91667ZM25.9546 26.9167H8.95459C8.10459 26.9167 7.53792 26.35 7.53792 25.5V17H10.3713C10.3713 20.9667 13.4879 24.0833 17.4546 24.0833C21.4213 24.0833 24.5379 20.9667 24.5379 17H27.3713V25.5C27.3713 26.35 26.8046 26.9167 25.9546 26.9167Z" fill="white"/>
</svg>
