<svg width="35" height="34" viewBox="0 0 35 34" fill="none" xmlns="http://www.w3.org/2000/svg">
<path d="M28.245 4.76001H7.38535C6.38779 4.76001 5.57825 5.55051 5.57825 6.52393V27.4737C5.57825 28.4485 6.38779 29.24 7.38535 29.24H28.245C29.2433 29.24 30.0583 28.4485 30.0583 27.4737V6.52393C30.0583 5.55051 29.2433 4.76001 28.245 4.76001ZM12.8386 25.6204H9.20605V13.9383H12.8386V25.6204ZM11.0223 12.341C10.7458 12.341 10.472 12.2865 10.2166 12.1807C9.96119 12.0748 9.72912 11.9197 9.53367 11.7241C9.33822 11.5285 9.18323 11.2963 9.07754 11.0408C8.97185 10.7853 8.91755 10.5115 8.91773 10.235C8.91773 9.6769 9.13944 9.14163 9.5341 8.74697C9.92876 8.35232 10.464 8.1306 11.0222 8.1306C11.5803 8.1306 12.1156 8.35232 12.5102 8.74697C12.9049 9.14163 13.1266 9.6769 13.1266 10.235C13.1266 10.7933 12.9049 11.3287 12.5104 11.7236C12.1158 12.1185 11.5806 12.3405 11.0223 12.341ZM26.4372 25.6204H22.8105V19.9396C22.8105 18.5844 22.7839 16.8419 20.9231 16.8419C19.0334 16.8419 18.7454 18.3178 18.7454 19.8414V25.6207H15.1159V13.9383H18.5992V15.5336H18.6489C19.1337 14.6156 20.3183 13.6469 22.0849 13.6469C25.7589 13.6469 26.4376 16.0657 26.4376 19.2124V25.6204H26.4372Z" fill="white"/>
</svg>
