<svg width="487" height="68" viewBox="0 0 487 68" fill="none" xmlns="http://www.w3.org/2000/svg">
<path d="M106.257 15.6405V37.095C106.363 38.3475 106.213 39.6085 105.816 40.801C105.419 41.9935 104.783 43.0924 103.947 44.0307C103.036 44.8506 101.969 45.4779 100.81 45.8752C99.6504 46.2724 98.4231 46.4314 97.2011 46.3426C95.8576 46.4131 94.5137 46.2143 93.2481 45.7577C91.9826 45.3012 90.8209 44.5961 89.8315 43.6839C88.8705 42.6691 88.1252 41.4698 87.6407 40.1584C87.1563 38.8471 86.9428 37.4509 87.0131 36.0546H92.9965C92.8787 37.3599 93.2132 38.6659 93.9437 39.7537C94.2864 40.176 94.7255 40.5099 95.224 40.7271C95.7225 40.9444 96.2658 41.0387 96.8083 41.0021C97.2821 41.0461 97.7596 40.9769 98.2015 40.8C98.6433 40.6231 99.0368 40.3437 99.3495 39.9848C99.9443 39.1868 100.239 38.2044 100.181 37.2106V15.6405H106.257Z" fill="#09123E"/>
<path d="M111.917 12.9358C112.697 12.2662 113.711 11.9337 114.736 12.011C115.729 11.9606 116.704 12.2913 117.462 12.9358C117.783 13.229 118.039 13.5861 118.214 13.9842C118.389 14.3823 118.479 14.8127 118.478 15.2477C118.487 15.6838 118.4 16.1164 118.224 16.5157C118.049 16.9149 117.789 17.2711 117.462 17.5596C116.704 18.204 115.729 18.5348 114.736 18.4843C113.75 18.5312 112.784 18.2005 112.033 17.5596C111.699 17.2754 111.433 16.9205 111.253 16.5207C111.073 16.1208 110.985 15.686 110.993 15.2477C110.978 14.8191 111.052 14.3921 111.211 13.9939C111.37 13.5958 111.611 13.2353 111.917 12.9358V12.9358ZM117.647 22.1834V46.0653H111.571V22.1834H117.647Z" fill="#09123E"/>
<path d="M160.385 24.5412C162.186 26.6677 163.089 29.4123 162.903 32.1936V46.065H156.873V32.8178C156.972 31.2817 156.476 29.7666 155.487 28.587C154.99 28.0957 154.397 27.7126 153.745 27.4619C153.093 27.2113 152.396 27.0984 151.699 27.1305C150.95 27.0948 150.203 27.2185 149.506 27.4935C148.809 27.7685 148.178 28.1885 147.656 28.7258C146.57 30.0121 146.023 31.6691 146.131 33.3496V46.0188H140.148V32.8178C140.246 31.2817 139.75 29.7666 138.761 28.587C138.261 28.0785 137.658 27.6817 136.993 27.4227C136.328 27.1637 135.616 27.0484 134.903 27.0843C134.152 27.0482 133.401 27.1717 132.7 27.4466C131.999 27.7215 131.364 28.1417 130.837 28.6795C129.77 29.9751 129.234 31.6274 129.336 33.3033V45.9725H123.145V22.1831H129.22V26.8069C129.815 25.317 130.866 24.0543 132.224 23.2003C133.705 22.3305 135.392 21.872 137.11 21.872C138.827 21.872 140.514 22.3305 141.996 23.2003C143.449 24.1544 144.57 25.5355 145.207 27.1537C145.932 25.5566 147.103 24.203 148.578 23.2557C150.053 22.3083 151.771 21.8074 153.524 21.8132C154.796 21.7512 156.066 21.9626 157.25 22.4332C158.433 22.9038 159.502 23.6226 160.385 24.5412Z" fill="#09123E"/>
<path d="M205.503 24.5417C207.296 26.673 208.197 29.414 208.021 32.1941V46.0656H201.992V32.8183C202.084 31.2791 201.579 29.7636 200.582 28.5876C200.082 28.0778 199.48 27.6802 198.815 27.4211C198.15 27.1621 197.437 27.0474 196.724 27.0848C195.976 27.0491 195.229 27.1728 194.532 27.4478C193.835 27.7228 193.204 28.1428 192.681 28.68C191.604 29.9699 191.066 31.6265 191.18 33.3038V45.9731H185.15V32.8183C185.242 31.2791 184.738 29.7636 183.741 28.5876C183.24 28.079 182.638 27.6822 181.973 27.4232C181.308 27.1642 180.596 27.0489 179.883 27.0848C179.135 27.0491 178.387 27.1728 177.69 27.4478C176.993 27.7228 176.363 28.1428 175.84 28.68C174.754 29.9664 174.208 31.6234 174.315 33.3038V45.9731H168.263V22.1836H174.315V26.8074C174.91 25.3176 175.962 24.0548 177.319 23.2008C178.8 22.331 180.487 21.8725 182.205 21.8725C183.922 21.8725 185.609 22.331 187.091 23.2008C188.544 24.1549 189.665 25.536 190.302 27.1542C191.018 25.5615 192.182 24.2119 193.652 23.2702C195.486 22.1335 197.645 21.6393 199.791 21.8653C201.936 22.0913 203.946 23.0247 205.503 24.5186V24.5417Z" fill="#09123E"/>
<path d="M217.447 22.1833L223.961 38.3667L229.991 22.1833H236.667L222.067 57.4399H215.344L220.727 45.3717L210.678 22.2527L217.447 22.1833Z" fill="#09123E"/>
<path d="M258.499 15.6637V18.9466H249.928V46.0652H246.001V18.9466H237.43V15.6637H258.499Z" fill="#09123E"/>
<path d="M283.957 35.1297H265.037C264.995 36.2429 265.178 37.3532 265.575 38.394C265.972 39.4349 266.575 40.3848 267.347 41.1868C268.782 42.5384 270.691 43.2694 272.661 43.2213C274.361 43.2784 276.033 42.7748 277.42 41.7879C278.666 40.8539 279.495 39.4674 279.73 37.9271H283.911C283.636 39.5248 282.978 41.032 281.994 42.3197C280.971 43.6265 279.648 44.6657 278.136 45.3483C276.454 46.0835 274.634 46.4463 272.799 46.4117C270.698 46.4512 268.622 45.9496 266.77 44.9552C265.024 43.9759 263.597 42.5154 262.657 40.7476C261.621 38.7587 261.105 36.5398 261.156 34.2974C261.108 32.0479 261.624 29.8222 262.657 27.824C263.596 26.0279 265.042 24.5483 266.816 23.5701C268.661 22.5567 270.741 22.0465 272.845 22.0905C274.912 22.0549 276.952 22.5652 278.76 23.5701C280.401 24.4885 281.759 25.8399 282.687 27.4773C283.606 29.1083 284.099 30.9453 284.119 32.8177C284.14 33.5918 284.085 34.366 283.957 35.1297V35.1297ZM279.337 28.8182C278.722 27.6846 277.769 26.7714 276.611 26.2057C275.45 25.6228 274.168 25.3218 272.869 25.3272C270.867 25.2696 268.921 25.9905 267.44 27.3385C266.681 28.1176 266.087 29.0404 265.69 30.0528C265.293 31.0652 265.103 32.1468 265.129 33.2339H280.261C280.374 31.6868 280.046 30.1394 279.314 28.7719L279.337 28.8182Z" fill="#09123E"/>
<path d="M307.221 24.5186C309.196 26.1401 310.498 28.4396 310.871 30.9688H306.736C306.521 29.3901 305.69 27.9606 304.426 26.9924C303.014 25.9661 301.294 25.4523 299.551 25.5359C298.225 25.52 296.918 25.855 295.762 26.5069C294.592 27.1834 293.644 28.188 293.036 29.3968C292.301 30.9065 291.944 32.5729 291.997 34.2518C291.944 35.9306 292.301 37.597 293.036 39.1068C293.657 40.3541 294.64 41.3854 295.855 42.066C297.016 42.7009 298.32 43.0272 299.644 43.0139C301.351 43.0735 303.029 42.5519 304.403 41.5343C305.668 40.5571 306.498 39.1201 306.713 37.5347H310.871C310.511 40.0813 309.208 42.3997 307.221 44.0311C305.065 45.6559 302.409 46.4738 299.713 46.343C297.612 46.3824 295.535 45.8809 293.683 44.8865C291.938 43.9072 290.511 42.4467 289.571 40.6788C288.515 38.7032 287.974 36.4924 288 34.2518C287.945 32.0042 288.453 29.7787 289.479 27.7784C290.437 25.9928 291.899 24.5293 293.683 23.5708C295.529 22.5574 297.608 22.0471 299.713 22.0911C302.423 21.9933 305.081 22.8526 307.221 24.5186V24.5186Z" fill="#09123E"/>
<path d="M335.128 24.6574C336.941 26.7779 337.854 29.5247 337.669 32.3098V46.1812H333.742V32.6566C333.861 30.6732 333.197 28.7224 331.893 27.2236C331.251 26.5819 330.481 26.0818 329.633 25.7553C328.786 25.4288 327.88 25.2832 326.973 25.3279C326.013 25.2841 325.055 25.4495 324.166 25.8128C323.276 26.1761 322.476 26.7284 321.821 27.4317C320.421 29.1355 319.726 31.3115 319.88 33.512V46.0656H315.953V14.1614H319.88V28.0328C320.393 26.2009 321.55 24.6161 323.138 23.5708C324.709 22.5234 326.564 21.9828 328.451 22.0218C329.686 21.97 330.919 22.1778 332.069 22.6318C333.219 23.0857 334.261 23.7758 335.128 24.6574V24.6574Z" fill="#09123E"/>
<path d="M362.827 24.6568C364.641 26.7773 365.553 29.5241 365.369 32.3092V46.1806H361.441V32.656C361.567 30.6758 360.911 28.7253 359.616 27.223C358.973 26.5813 358.203 26.0811 357.356 25.7546C356.509 25.4282 355.602 25.2826 354.695 25.3272C353.736 25.2834 352.778 25.4489 351.888 25.8121C350.999 26.1754 350.199 26.7278 349.544 27.431C348.144 29.1348 347.449 31.3108 347.603 33.5114V46.065H343.676V22.3911H347.603V28.009C348.115 26.1892 349.262 24.6139 350.837 23.5702C352.409 22.5227 354.263 21.9822 356.151 22.0212C357.386 21.9694 358.618 22.1772 359.768 22.6311C360.918 23.0851 361.96 23.7751 362.827 24.6568V24.6568Z" fill="#09123E"/>
<path d="M388.216 23.5709C390.004 24.5325 391.473 25.9947 392.444 27.7786C393.496 29.7708 394.021 31.9993 393.968 34.2519C394.024 36.4976 393.499 38.7194 392.444 40.7022C391.467 42.4813 389.999 43.9418 388.216 44.9098C386.325 45.8667 384.236 46.3653 382.117 46.3653C379.998 46.3653 377.909 45.8667 376.018 44.9098C374.24 43.9356 372.774 42.4766 371.791 40.7022C370.717 38.7254 370.184 36.5007 370.243 34.2519C370.187 31.9962 370.721 29.7649 371.791 27.7786C372.768 25.9995 374.235 24.5389 376.018 23.5709C377.905 22.5995 379.996 22.0928 382.117 22.0928C384.239 22.0928 386.33 22.5995 388.216 23.5709V23.5709ZM378.213 26.5071C376.991 27.1619 375.993 28.1686 375.348 29.3969C374.566 30.8924 374.184 32.565 374.239 34.2519C374.187 35.9239 374.569 37.5808 375.348 39.0607C375.974 40.3319 376.974 41.3807 378.213 42.0662C379.42 42.6887 380.759 43.0135 382.117 43.0135C383.475 43.0135 384.814 42.6887 386.021 42.0662C387.255 41.4089 388.262 40.3934 388.909 39.1532C389.68 37.6712 390.054 36.0143 389.995 34.3444C390.056 32.6596 389.682 30.9874 388.909 29.4894C388.25 28.2636 387.246 27.2587 386.021 26.5995C384.819 25.9619 383.478 25.6285 382.117 25.6285C380.756 25.6285 379.416 25.9619 378.213 26.5995V26.5071Z" fill="#09123E"/>
<path d="M403.026 14.1614V46.0656H399.099V14.1614H403.026Z" fill="#09123E"/>
<path d="M426.128 23.5701C427.911 24.538 429.378 25.9986 430.355 27.7777C431.407 29.7699 431.932 31.9984 431.88 34.251C431.936 36.4967 431.41 38.7185 430.355 40.7013C429.372 42.4757 427.906 43.9347 426.128 44.9089C424.237 45.8658 422.148 46.3644 420.029 46.3644C417.91 46.3644 415.821 45.8658 413.93 44.9089C412.151 43.9347 410.685 42.4757 409.702 40.7013C408.621 38.7267 408.079 36.5019 408.131 34.251C408.083 31.9932 408.624 29.7618 409.702 27.7777C410.679 25.9986 412.147 24.538 413.93 23.5701C415.816 22.5968 417.907 22.089 420.029 22.089C422.151 22.089 424.242 22.5968 426.128 23.5701V23.5701ZM416.125 26.5062C414.905 27.1718 413.902 28.1751 413.237 29.3961C412.474 30.8978 412.101 32.5673 412.151 34.251C412.103 35.9199 412.476 37.5739 413.237 39.0598C413.879 40.3267 414.885 41.3731 416.125 42.0653C417.332 42.6878 418.671 43.0126 420.029 43.0126C421.387 43.0126 422.726 42.6878 423.933 42.0653C425.16 41.3978 426.164 40.385 426.821 39.1523C427.581 37.6664 427.955 36.0124 427.907 34.3435C427.957 32.6597 427.583 30.9903 426.821 29.4885C426.156 28.2676 425.153 27.2643 423.933 26.5986C422.73 25.961 421.39 25.6276 420.029 25.6276C418.668 25.6276 417.327 25.961 416.125 26.5986V26.5062Z" fill="#09123E"/>
<path d="M452.532 23.8246C454.115 24.9619 455.283 26.5856 455.859 28.4484V22.3913H459.786V46.4582C459.822 48.486 459.345 50.4899 458.4 52.2842C457.521 53.9457 456.181 55.3183 454.542 56.2375C452.762 57.2197 450.753 57.7142 448.721 57.6709C445.934 57.7871 443.187 56.9739 440.912 55.359C438.907 53.8243 437.54 51.6005 437.077 49.1169H440.958C441.367 50.6308 442.29 51.9551 443.569 52.8621C445.037 53.8141 446.765 54.283 448.513 54.203C449.482 54.2375 450.449 54.0749 451.354 53.7253C452.26 53.3756 453.085 52.8461 453.78 52.1686C454.497 51.4085 455.051 50.51 455.408 49.5281C455.766 48.5462 455.919 47.5015 455.859 46.4582V40.0311C455.28 41.8924 454.113 43.5152 452.532 44.6549C450.815 45.8307 448.768 46.4298 446.688 46.3657C444.726 46.3978 442.794 45.8943 441.097 44.9092C439.436 43.9041 438.097 42.444 437.239 40.7015C436.274 38.6914 435.799 36.4808 435.853 34.2513C435.809 32.0128 436.292 29.7955 437.262 27.778C438.107 26.0342 439.439 24.5728 441.097 23.5703C442.787 22.5672 444.723 22.0548 446.688 22.0907C448.772 22.0236 450.822 22.6318 452.532 23.8246V23.8246ZM442.021 27.8936C440.493 29.6463 439.713 31.9292 439.849 34.2513C439.708 36.5741 440.488 38.8589 442.021 40.6091C442.767 41.3856 443.67 41.9936 444.671 42.3924C445.671 42.7911 446.744 42.9713 447.82 42.921C449.278 42.9408 450.715 42.5653 451.978 41.8344C453.193 41.1078 454.184 40.0598 454.843 38.8058C455.551 37.3698 455.9 35.7829 455.859 34.182C455.897 32.5813 455.549 30.995 454.843 29.5582C454.19 28.3456 453.214 27.3374 452.024 26.6452C450.755 25.9327 449.321 25.566 447.866 25.5817C446.784 25.5306 445.703 25.7104 444.695 26.1089C443.687 26.5075 442.776 27.1158 442.021 27.8936V27.8936Z" fill="#09123E"/>
<path d="M467.665 22.392L475.335 41.0259L482.45 22.392H486.793L472.816 57.2786H468.381L473.302 45.7191L463.275 22.392H467.665Z" fill="#09123E"/>
<path d="M50.9237 23.1434V33.9977C50.9569 36.2498 50.5261 38.4846 49.6581 40.563C48.7901 42.6414 47.5035 44.5189 45.8784 46.0785C44.323 47.6371 42.471 48.8681 40.4318 49.6989C38.3927 50.5297 36.2076 50.9433 34.0059 50.9154C31.7663 50.9433 29.5437 50.5232 27.4688 49.6797C25.3939 48.8361 23.5087 47.5863 21.9238 46.0036C20.339 44.4209 19.0866 42.5373 18.2402 40.4636C17.3939 38.3899 16.9707 36.1679 16.9955 33.9282H0.00834524C-0.092899 38.4074 0.72801 42.8596 2.42007 47.0081C4.11213 51.1567 6.63919 54.9129 9.84426 58.0436C12.9795 61.2631 16.7406 63.8069 20.8958 65.5183C25.0511 67.2298 29.5126 68.0727 34.0059 67.9952C38.4433 68.067 42.8485 67.2316 46.9516 65.5402C51.0546 63.8488 54.7689 61.3372 57.8667 58.1593C61.1202 55.0427 63.6956 51.2883 65.4318 47.1309C67.1681 42.9734 68.0278 38.5025 67.9572 33.9977V23.1434H50.9237Z" fill="#0044AE"/>
<path d="M34.1441 0H34.0053H17.1338L34.0053 16.9872H40.5086H50.9925H68.0028V0H34.1441Z" fill="#01ADFC"/>
</svg>
