<svg width="50" height="50" viewBox="0 0 50 50" fill="none" xmlns="http://www.w3.org/2000/svg">
<circle cx="25" cy="25" r="25" fill="#00B0FF"/>
<g clip-path="url(#clip0_1_513)">
<path d="M35.3437 30.2535L30.3124 28.0973C30.0975 28.0057 29.8586 27.9864 29.6318 28.0423C29.4049 28.0982 29.2024 28.2263 29.0546 28.4073L26.8265 31.1295C23.3297 29.4808 20.5155 26.6666 18.8668 23.1698L21.5891 20.9417C21.7704 20.7942 21.8988 20.5916 21.9547 20.3647C22.0106 20.1377 21.9911 19.8987 21.899 19.6839L19.7428 14.6526C19.6417 14.421 19.4631 14.2319 19.2376 14.1179C19.012 14.0039 18.7538 13.9722 18.5074 14.0282L13.8355 15.1063C13.598 15.1612 13.386 15.295 13.2343 15.4858C13.0825 15.6766 12.9999 15.9133 13 16.1571C13 27.6795 22.3393 37.0008 33.8437 37.0008C34.0876 37.001 34.3244 36.9184 34.5153 36.7667C34.7062 36.6149 34.84 36.4029 34.8949 36.1653L35.973 31.4934C36.0287 31.2458 35.9963 30.9865 35.8814 30.7602C35.7666 30.5339 35.5764 30.3548 35.3437 30.2535Z" fill="white"/>
</g>
<defs>
<clipPath id="clip0_1_513">
<rect width="23" height="23" fill="white" transform="translate(13 14)"/>
</clipPath>
</defs>
</svg>
