<svg width="50" height="50" viewBox="0 0 50 50" fill="none" xmlns="http://www.w3.org/2000/svg">
<circle cx="25" cy="25" r="25" fill="#00B0FF"/>
<path d="M25 23.75C26.0355 23.75 26.875 22.9105 26.875 21.875C26.875 20.8395 26.0355 20 25 20C23.9645 20 23.125 20.8395 23.125 21.875C23.125 22.9105 23.9645 23.75 25 23.75Z" fill="white"/>
<path d="M25 12.5C22.3651 12.4999 19.8366 13.5397 17.9641 15.3935C16.0915 17.2473 15.0263 19.7652 15 22.4C15 29.25 23.8125 36.875 24.1875 37.2C24.4139 37.3937 24.7021 37.5001 25 37.5001C25.2979 37.5001 25.5861 37.3937 25.8125 37.2C26.25 36.875 35 29.25 35 22.4C34.9736 19.7652 33.9085 17.2473 32.0359 15.3935C30.1634 13.5397 27.6349 12.4999 25 12.5ZM25 26.25C24.1347 26.25 23.2888 25.9934 22.5694 25.5127C21.8499 25.0319 21.2892 24.3487 20.958 23.5492C20.6269 22.7498 20.5403 21.8701 20.7091 21.0215C20.8779 20.1728 21.2946 19.3933 21.9064 18.7814C22.5183 18.1696 23.2978 17.7529 24.1465 17.5841C24.9951 17.4153 25.8748 17.5019 26.6742 17.833C27.4737 18.1642 28.1569 18.7249 28.6377 19.4444C29.1184 20.1638 29.375 21.0097 29.375 21.875C29.375 23.0353 28.9141 24.1481 28.0936 24.9686C27.2731 25.7891 26.1603 26.25 25 26.25Z" fill="white"/>
</svg>
