<svg width="35" height="34" viewBox="0 0 35 34" fill="none" xmlns="http://www.w3.org/2000/svg">
<path d="M27.6701 9.93361C28.8148 9.23094 29.5727 8.27186 29.9438 7.05211C28.8984 7.61751 27.7766 8.02837 26.6133 8.27186C25.6173 7.20086 24.3565 6.65686 22.8449 6.65686C21.3673 6.65686 20.1193 7.17536 19.1007 8.18403C18.6088 8.66301 18.2198 9.23738 17.9577 9.87196C17.6956 10.5065 17.5658 11.1879 17.5763 11.8744C17.5763 12.3122 17.6316 12.7032 17.7421 13.0347C13.3844 12.8859 9.77759 11.0783 6.93575 7.59894C6.45409 8.45036 6.21325 9.31736 6.21325 10.2141C6.21325 12.0572 6.991 13.5178 8.54367 14.5902C7.65825 14.5151 6.87767 14.2913 6.21325 13.9244C6.21325 15.2404 6.6 16.3398 7.37492 17.3074C8.12767 18.2502 9.18851 18.8977 10.3712 19.1363C9.92917 19.2496 9.46309 19.3034 8.98425 19.3034C8.54225 19.3034 8.22917 19.2666 8.04359 19.1859C8.36942 20.2583 8.98425 21.1281 9.8725 21.7939C10.7506 22.4607 11.8188 22.8295 12.9212 22.8465C11.0342 24.3269 8.87659 25.0594 6.43567 25.0594C5.83784 25.0594 5.41425 25.0509 5.15784 25.0055C7.56192 26.5667 10.238 27.3416 13.1988 27.3416C16.2291 27.3416 18.9066 26.5738 21.237 25.0381C23.5674 23.5109 25.2873 21.6268 26.3923 19.4083C27.485 17.2616 28.054 14.8867 28.0526 12.4779V11.8149C29.0711 11.064 29.9529 10.1434 30.6593 9.09353C29.7053 9.507 28.6998 9.78958 27.6701 9.93361Z" fill="white"/>
</svg>
