<svg width="35" height="34" viewBox="0 0 35 34" fill="none" xmlns="http://www.w3.org/2000/svg">
<path d="M32.6636 12.1833C32.3803 10.0583 32.0969 8.49992 31.2469 7.93325C30.3969 7.22492 23.0303 7.08325 17.3636 7.08325C11.6969 7.08325 4.33027 7.22492 3.48027 7.93325C2.63027 8.49992 2.34694 10.0583 2.06361 12.1833C1.78027 14.3083 1.78027 15.5833 1.78027 16.9999C1.78027 18.4166 1.78027 19.6916 2.06361 21.8166C2.34694 23.9416 2.63027 25.4999 3.48027 26.0666C4.33027 26.7749 11.6969 26.9166 17.3636 26.9166C23.0303 26.9166 30.3969 26.7749 31.2469 26.0666C32.0969 25.4999 32.3803 23.9416 32.6636 21.8166C32.9469 19.6916 32.9469 18.4166 32.9469 16.9999C32.9469 15.5833 32.9469 14.3083 32.6636 12.1833ZM14.5303 22.0999V11.8999L23.0303 16.9999L14.5303 22.0999Z" fill="white"/>
</svg>
